<svg width="169" height="169" viewBox="0 0 169 169" fill="none" xmlns="http://www.w3.org/2000/svg">
<path d="M88.5698 60.5538H122.067C130.614 60.5538 135.552 70.3309 130.521 77.2971L77.0323 151.358C71.0733 159.609 58.1205 155.36 58.1205 145.155V109.423C58.1205 101.546 51.7862 95.1616 43.9723 95.1616H10.476C1.9273 95.1616 -3.00967 85.3845 2.02141 78.4183L55.5098 4.35721C61.4688 -3.89377 74.4216 0.354794 74.4216 10.5604V46.2935C74.4216 54.1692 80.756 60.5538 88.5698 60.5538Z" fill="#E4572A" fill-opacity="0.2"/>
<path d="M146.237 169C158.807 169 168.997 158.729 168.997 146.06C168.997 133.39 158.807 123.119 146.237 123.119C133.667 123.119 123.477 133.39 123.477 146.06C123.477 158.729 133.667 169 146.237 169Z" fill="#E4572A" fill-opacity="0.2"/>
</svg>
