<svg width="17" height="16" viewBox="0 0 17 16" fill="none" xmlns="http://www.w3.org/2000/svg">
<g clip-path="url(#clip0_618_21857)">
<path d="M9.27094 3.04746H10.7959V3.80746H11.5559V4.57246H12.3209V6.09746H13.0809V9.90246H12.3209V11.4275H11.5559V12.1925H10.7959V12.9525H9.27094V13.7125H5.46094V14.4775H10.7959V13.7125H12.3209V12.9525H13.0809V12.1925H13.8459V11.4275H14.6059V9.90246H15.3659V6.09746H14.6059V4.57246H13.8459V3.80746H13.0809V3.04746H12.3209V2.28746H10.7959V1.52246H5.46094V2.28746H9.27094V3.04746Z" fill="#F3EFE0"/>
<path d="M12.3197 6.09766H11.5547V9.90266H12.3197V6.09766Z" fill="#F3EFE0"/>
<path d="M11.5569 9.90234H10.7969V10.6673H11.5569V9.90234Z" fill="#F3EFE0"/>
<path d="M11.5569 5.33203H10.7969V6.09703H11.5569V5.33203Z" fill="#F3EFE0"/>
<path d="M10.7991 10.667H10.0391V11.427H10.7991V10.667Z" fill="#F3EFE0"/>
<path d="M10.7991 4.57227H10.0391V5.33227H10.7991V4.57227Z" fill="#F3EFE0"/>
<path d="M10.0384 11.4277H9.27344V12.1927H10.0384V11.4277Z" fill="#F3EFE0"/>
<path d="M10.0384 3.80762H9.27344V4.57262H10.0384V3.80762Z" fill="#F3EFE0"/>
<path d="M9.27094 12.1924H5.46094V12.9524H9.27094V12.1924Z" fill="#F3EFE0"/>
<path d="M9.26781 8.38281H8.50781V9.90281H9.26781V8.38281Z" fill="#F3EFE0"/>
<path d="M9.26781 6.09766H8.50781V6.85766H9.26781V6.09766Z" fill="#F3EFE0"/>
<path d="M9.27094 3.04785H5.46094V3.80785H9.27094V3.04785Z" fill="#F3EFE0"/>
<path d="M6.98656 10.6673V11.4273H7.74656V10.6673H8.51156V9.90227H7.74656V8.38226H8.51156V7.61726H7.74656V6.09727H8.51156V5.33227H7.74656V4.57227H6.98656V5.33227H6.22656V6.09727H6.98656V7.61726H6.22656V8.38226H6.98656V9.90227H6.22656V10.6673H6.98656Z" fill="#F3EFE0"/>
<path d="M6.22594 9.14258H5.46094V9.90258H6.22594V9.14258Z" fill="#F3EFE0"/>
<path d="M6.22594 6.09766H5.46094V7.61766H6.22594V6.09766Z" fill="#F3EFE0"/>
<path d="M5.4575 12.9521H3.9375V13.7121H5.4575V12.9521Z" fill="#F3EFE0"/>
<path d="M5.46312 11.4277H4.70312V12.1927H5.46312V11.4277Z" fill="#F3EFE0"/>
<path d="M5.46312 3.80762H4.70312V4.57262H5.46312V3.80762Z" fill="#F3EFE0"/>
<path d="M5.4575 2.28711H3.9375V3.04711H5.4575V2.28711Z" fill="#F3EFE0"/>
<path d="M4.6975 10.667H3.9375V11.427H4.6975V10.667Z" fill="#F3EFE0"/>
<path d="M4.6975 4.57227H3.9375V5.33227H4.6975V4.57227Z" fill="#F3EFE0"/>
<path d="M3.93688 12.1924H3.17188V12.9524H3.93688V12.1924Z" fill="#F3EFE0"/>
<path d="M3.93688 9.90234H3.17188V10.6673H3.93688V9.90234Z" fill="#F3EFE0"/>
<path d="M3.93688 5.33203H3.17188V6.09703H3.93688V5.33203Z" fill="#F3EFE0"/>
<path d="M3.93688 3.04785H3.17188V3.80785H3.93688V3.04785Z" fill="#F3EFE0"/>
<path d="M3.17406 11.4277H2.41406V12.1927H3.17406V11.4277Z" fill="#F3EFE0"/>
<path d="M3.17406 6.09766H2.41406V9.90266H3.17406V6.09766Z" fill="#F3EFE0"/>
<path d="M3.17406 3.80762H2.41406V4.57262H3.17406V3.80762Z" fill="#F3EFE0"/>
<path d="M2.41344 9.90234H1.64844V11.4273H2.41344V9.90234Z" fill="#F3EFE0"/>
<path d="M2.41344 4.57227H1.64844V6.09727H2.41344V4.57227Z" fill="#F3EFE0"/>
<path d="M1.65063 6.09766H0.890625V9.90266H1.65063V6.09766Z" fill="#F3EFE0"/>
</g>
<defs>
<clipPath id="clip0_618_21857">
<rect width="16" height="16" fill="white" transform="translate(0.125)"/>
</clipPath>
</defs>
</svg>
