<svg width="211" height="179" viewBox="0 0 211 179" fill="none" xmlns="http://www.w3.org/2000/svg">
<g clip-path="url(#clip0_609_21982)">
<path d="M133.5 200.75C194.943 200.75 244.75 150.943 244.75 89.5C244.75 28.0566 194.943 -21.75 133.5 -21.75C72.0566 -21.75 22.25 28.0566 22.25 89.5C22.25 150.943 72.0566 200.75 133.5 200.75ZM185.854 73.5245C183.918 85.2391 177.789 90.9574 169.489 92.9821C180.525 99.1565 185.843 108.535 180.158 124.989C173.094 145.615 157.274 147.484 136.326 143.49L130.919 165.261L118.748 162.246L124.144 140.475C122.764 140.111 121.381 139.774 119.994 139.462C118.081 139.017 116.101 138.561 114.143 137.994L108.747 159.766L96.5984 156.762L101.994 134.979L77.786 128.393L83.7935 112.996C83.7935 112.996 92.9382 115.51 92.8047 115.355C96.1868 116.178 97.8444 113.797 98.523 112.15L107.156 77.2514L113.453 52.4426C113.72 49.7615 112.874 46.246 107.924 44.911C108.257 44.7219 99.0236 42.7083 99.0236 42.7083L102.617 28.1122L127.57 34.2978L132.855 12.9711L145.426 16.0861L140.142 37.4127C143.379 38.1247 146.527 38.9702 149.776 39.8046L155.049 18.478L167.287 21.504L161.858 43.3869C177.288 49.0606 188.402 57.4378 185.854 73.5245ZM129.117 77.8633C136.426 80.066 158.097 86.5741 161.746 72.0782C165.151 58.2832 146.372 54.078 137.65 52.12C136.611 51.8975 135.74 51.6935 135.035 51.5081L128.505 77.6852L129.117 77.8633ZM117.836 120.361L118.893 120.683C127.904 123.353 153.447 130.952 156.918 116.567C160.478 102.705 137.516 97.3098 127.226 94.8845C126.091 94.6249 125.134 94.395 124.355 94.1947L117.836 120.361Z" fill="#E4572A" fill-opacity="0.2"/>
</g>
<defs>
<clipPath id="clip0_609_21982">
<rect width="211" height="179" fill="white"/>
</clipPath>
</defs>
</svg>
