<svg width="117" height="43" viewBox="0 0 117 43" fill="none" xmlns="http://www.w3.org/2000/svg">
<path d="M48.4617 18.49C48.4617 18.8858 48.141 19.2067 47.7454 19.2067H46.0835C45.6879 19.2067 45.3672 18.8858 45.3672 18.49V0.716667C45.3672 0.320861 45.6879 0 46.0835 0H59.9229C60.3186 0 60.6393 0.320864 60.6393 0.716667V2.064C60.6393 2.45982 60.3186 2.78067 59.9229 2.78067H49.178C48.7824 2.78067 48.4617 3.10152 48.4617 3.49733V8.02667C48.4617 8.42248 48.7824 8.74333 49.178 8.74333H59.4931C59.8888 8.74333 60.2095 9.06419 60.2095 9.46V10.7787C60.2095 11.1745 59.8888 11.4953 59.4931 11.4953H49.178C48.7824 11.4953 48.4617 11.8162 48.4617 12.212V18.49Z" fill="url(#paint0_linear_607_16578)"/>
<path d="M65.1727 18.49C65.1727 18.8858 64.852 19.2067 64.4563 19.2067H62.7945C62.3988 19.2067 62.0781 18.8858 62.0781 18.49V0.716667C62.0781 0.320861 62.3988 0 62.7945 0H64.4563C64.852 0 65.1727 0.320864 65.1727 0.716667V18.49Z" fill="url(#paint1_linear_607_16578)"/>
<path d="M71.3606 19.4935C68.4093 19.4935 66.5469 18.1175 66.5469 15.7669C66.5469 13.5595 68.3234 12.4129 71.1314 12.0975L76.9661 11.4776C77.3305 11.4389 77.607 11.1314 77.607 10.7649V10.5782C77.607 8.22752 76.5754 7.39619 73.8534 7.39619C71.2173 7.39619 69.9279 8.25619 69.9279 10.3489C69.9279 10.4122 69.8766 10.4635 69.8133 10.4635H66.9767C66.9134 10.4635 66.8621 10.4122 66.8621 10.3489C66.8621 7.10952 69.5554 4.67285 74.0826 4.67285C78.6098 4.67285 80.6442 7.13819 80.6442 10.5495V18.4902C80.6442 18.886 80.3235 19.2069 79.9279 19.2069H78.5239C78.1282 19.2069 77.8075 18.886 77.8075 18.4902V15.7677C77.8075 15.7039 77.7557 15.6522 77.692 15.6522C77.6413 15.6522 77.5967 15.6855 77.5809 15.7336C76.8104 18.0925 74.5616 19.4935 71.3606 19.4935ZM69.6414 15.5662C69.6414 16.7129 70.415 17.2575 72.1915 17.2575C75.1036 17.2575 77.1583 16.2835 77.542 14.0433C77.6141 13.6218 77.2349 13.2862 76.8102 13.3341L72.0196 13.8749C70.415 14.0755 69.6414 14.4482 69.6414 15.5662Z" fill="url(#paint2_linear_607_16578)"/>
<path d="M89.2805 19.4935C84.696 19.4935 82.0886 17.6875 82.0886 14.3909C82.0886 14.3434 82.1273 14.3049 82.1745 14.3049H84.9539C85.0807 14.3049 85.1831 14.4075 85.1831 14.5342C85.1831 16.3975 86.3006 16.9995 89.2805 16.9995C92.0598 16.9995 92.8908 16.4262 92.8908 15.1649C92.8908 13.9895 92.2031 13.6169 90.1687 13.3302L86.2719 12.8142C83.5785 12.4702 81.9453 11.3235 81.9453 8.94419C81.9453 6.45018 84.2089 4.67285 88.5928 4.67285C92.9481 4.67285 95.5842 6.42152 95.5842 9.80419C95.5842 9.85168 95.5457 9.89019 95.4982 9.89019H92.6902C92.5954 9.89019 92.5183 9.81317 92.5183 9.71819C92.5183 8.02685 91.6587 7.13819 88.5069 7.13819C85.8994 7.13819 84.9825 7.71152 84.9825 9.05885C84.9825 10.1769 85.5556 10.5782 87.7046 10.8649L90.9997 11.3235C94.3807 11.7535 95.928 12.9002 95.928 15.2509C95.928 17.9169 93.2919 19.4935 89.2805 19.4935Z" fill="url(#paint3_linear_607_16578)"/>
<path d="M100.399 18.49C100.399 18.8858 100.079 19.2067 99.6829 19.2067H98.021C97.6254 19.2067 97.3047 18.8858 97.3047 18.49V0.716667C97.3047 0.320861 97.6254 0 98.021 0H99.6829C100.079 0 100.399 0.320864 100.399 0.716667V9.22204C100.399 9.27431 100.441 9.31667 100.494 9.31667C100.539 9.31667 100.578 9.28497 100.587 9.24094C101.095 6.86201 102.844 4.67267 106.445 4.67267C110.37 4.67267 112.29 7.25267 112.29 10.7213V18.49C112.29 18.8858 111.97 19.2067 111.574 19.2067H109.941C109.545 19.2067 109.224 18.8858 109.224 18.49V11.4667C109.224 8.6 107.935 7.45333 104.984 7.45333C101.603 7.45333 100.399 9.288 100.399 12.298V18.49Z" fill="url(#paint4_linear_607_16578)"/>
<path d="M54.2782 40.7067H46.2554C45.8597 40.7067 45.5391 40.3858 45.5391 39.99V22.2167C45.5391 21.8209 45.8597 21.5 46.2554 21.5H54.2782C60.2381 21.5 63.9916 25.1693 63.9916 31.1033C63.9916 37.0373 60.2381 40.7067 54.2782 40.7067ZM54.2782 24.2807H49.3213C48.9256 24.2807 48.6049 24.6015 48.6049 24.9973V37.2093C48.6049 37.6052 48.9256 37.926 49.3213 37.926H54.2782C58.7195 37.926 60.7252 36.034 60.7252 31.1033C60.7252 26.1727 58.7195 24.2807 54.2782 24.2807Z" fill="url(#paint5_linear_607_16578)"/>
<path d="M71.0848 40.993C67.0734 40.993 65.125 38.327 65.125 35.0303V27.1757C65.125 26.7798 65.4457 26.459 65.8413 26.459H67.4746C67.8702 26.459 68.1909 26.7798 68.1909 27.1757V34.199C68.1909 36.865 69.423 38.2123 72.4315 38.2123C75.5834 38.2123 77.0447 36.607 77.0447 33.511V27.1757C77.0447 26.7798 77.3654 26.459 77.761 26.459H79.3942C79.7899 26.459 80.1105 26.7798 80.1105 27.1757V39.9896C80.1105 40.3855 79.7899 40.7063 79.3942 40.7063H77.9902C77.5946 40.7063 77.2739 40.3855 77.2739 39.9896V36.3858C77.2739 36.3337 77.2319 36.2917 77.1798 36.2917C77.1347 36.2917 77.096 36.3237 77.0869 36.3679C76.6034 38.7479 74.7137 40.993 71.0848 40.993Z" fill="url(#paint6_linear_607_16578)"/>
<path d="M88.9395 40.9935C84.269 40.9935 81.2031 38.3562 81.2031 33.5975C81.2031 29.1542 84.2403 26.1729 88.8821 26.1729C93.2947 26.1729 96.3033 28.6095 96.3033 32.9382C96.3033 33.2201 96.2949 33.4676 96.273 33.7043C96.2417 34.0445 95.943 34.2855 95.6015 34.2855H84.844C84.4366 34.2855 84.1062 34.6259 84.163 35.0297C84.4832 37.3003 85.8693 38.4995 88.8535 38.4995C91.8334 38.4995 93.0655 37.5249 93.0655 35.8335C93.0655 35.7069 93.1682 35.6042 93.2947 35.6042H95.9021C96.0447 35.6042 96.16 35.7198 96.16 35.8622C96.16 38.9009 93.1801 40.9935 88.9395 40.9935ZM88.8248 28.6095C86.002 28.6095 84.6042 29.7364 84.2196 31.8044C84.1439 32.2122 84.4775 32.5655 84.892 32.5655H93.3234C93.3551 32.5655 93.3807 32.54 93.3807 32.5082C93.3807 29.8709 91.8621 28.6095 88.8248 28.6095Z" fill="url(#paint7_linear_607_16578)"/>
<path d="M100.563 39.99C100.563 40.3858 100.243 40.7067 99.847 40.7067H98.1851C97.7894 40.7067 97.4688 40.3858 97.4688 39.99V22.2167C97.4688 21.8209 97.7894 21.5 98.1851 21.5H99.847C100.243 21.5 100.563 21.8209 100.563 22.2167V39.99Z" fill="url(#paint8_linear_607_16578)"/>
<path d="M109.023 40.9935C104.438 40.9935 101.831 39.1875 101.831 35.8909C101.831 35.8433 101.869 35.8049 101.917 35.8049H104.696C104.823 35.8049 104.925 35.9076 104.925 36.0342C104.925 37.8975 106.043 38.4995 109.023 38.4995C111.802 38.4995 112.633 37.9262 112.633 36.6648C112.633 35.4895 111.945 35.1169 109.911 34.8302L106.014 34.3142C103.321 33.9702 101.688 32.8235 101.688 30.4442C101.688 27.9502 103.951 26.1729 108.335 26.1729C112.69 26.1729 115.326 27.9215 115.326 31.3042C115.326 31.3517 115.288 31.3902 115.24 31.3902H112.432C112.337 31.3902 112.26 31.3133 112.26 31.2182C112.26 29.5269 111.401 28.6382 108.249 28.6382C105.642 28.6382 104.725 29.2115 104.725 30.5589C104.725 31.6769 105.298 32.0782 107.447 32.3649L110.742 32.8235C114.123 33.2535 115.67 34.4002 115.67 36.7508C115.67 39.4169 113.034 40.9935 109.023 40.9935Z" fill="url(#paint9_linear_607_16578)"/>
<mask id="mask0_607_16578" style="mask-type:luminance" maskUnits="userSpaceOnUse" x="45" y="0" width="71" height="41">
<path d="M48.4617 18.49C48.4617 18.8858 48.141 19.2067 47.7454 19.2067H46.0835C45.6879 19.2067 45.3672 18.8858 45.3672 18.49V0.716667C45.3672 0.320861 45.6879 0 46.0835 0H59.9229C60.3186 0 60.6393 0.320864 60.6393 0.716667V2.064C60.6393 2.45982 60.3186 2.78067 59.9229 2.78067H49.178C48.7824 2.78067 48.4617 3.10152 48.4617 3.49733V8.02667C48.4617 8.42248 48.7824 8.74333 49.178 8.74333H59.4931C59.8888 8.74333 60.2095 9.06419 60.2095 9.46V10.7787C60.2095 11.1745 59.8888 11.4953 59.4931 11.4953H49.178C48.7824 11.4953 48.4617 11.8162 48.4617 12.212V18.49Z" fill="white"/>
<path d="M65.1727 18.49C65.1727 18.8858 64.852 19.2067 64.4563 19.2067H62.7945C62.3988 19.2067 62.0781 18.8858 62.0781 18.49V0.716667C62.0781 0.320861 62.3988 0 62.7945 0H64.4563C64.852 0 65.1727 0.320864 65.1727 0.716667V18.49Z" fill="white"/>
<path d="M71.3606 19.4935C68.4093 19.4935 66.5469 18.1175 66.5469 15.7669C66.5469 13.5595 68.3234 12.4129 71.1314 12.0975L76.9661 11.4776C77.3305 11.4389 77.607 11.1314 77.607 10.7649V10.5782C77.607 8.22752 76.5754 7.39619 73.8534 7.39619C71.2173 7.39619 69.9279 8.25619 69.9279 10.3489C69.9279 10.4122 69.8766 10.4635 69.8133 10.4635H66.9767C66.9134 10.4635 66.8621 10.4122 66.8621 10.3489C66.8621 7.10952 69.5554 4.67285 74.0826 4.67285C78.6098 4.67285 80.6442 7.13819 80.6442 10.5495V18.4902C80.6442 18.886 80.3235 19.2069 79.9279 19.2069H78.5239C78.1282 19.2069 77.8075 18.886 77.8075 18.4902V15.7677C77.8075 15.7039 77.7557 15.6522 77.692 15.6522C77.6413 15.6522 77.5967 15.6855 77.5809 15.7336C76.8104 18.0925 74.5616 19.4935 71.3606 19.4935ZM69.6414 15.5662C69.6414 16.7129 70.415 17.2575 72.1915 17.2575C75.1036 17.2575 77.1583 16.2835 77.542 14.0433C77.6141 13.6218 77.2349 13.2862 76.8102 13.3341L72.0196 13.8749C70.415 14.0755 69.6414 14.4482 69.6414 15.5662Z" fill="white"/>
<path d="M89.2805 19.4935C84.696 19.4935 82.0886 17.6875 82.0886 14.3909C82.0886 14.3434 82.1273 14.3049 82.1745 14.3049H84.9539C85.0807 14.3049 85.1831 14.4075 85.1831 14.5342C85.1831 16.3975 86.3006 16.9995 89.2805 16.9995C92.0598 16.9995 92.8908 16.4262 92.8908 15.1649C92.8908 13.9895 92.2031 13.6169 90.1687 13.3302L86.2719 12.8142C83.5785 12.4702 81.9453 11.3235 81.9453 8.94419C81.9453 6.45018 84.2089 4.67285 88.5928 4.67285C92.9481 4.67285 95.5842 6.42152 95.5842 9.80419C95.5842 9.85168 95.5457 9.89019 95.4982 9.89019H92.6902C92.5954 9.89019 92.5183 9.81317 92.5183 9.71819C92.5183 8.02685 91.6587 7.13819 88.5069 7.13819C85.8994 7.13819 84.9825 7.71152 84.9825 9.05885C84.9825 10.1769 85.5556 10.5782 87.7046 10.8649L90.9997 11.3235C94.3807 11.7535 95.928 12.9002 95.928 15.2509C95.928 17.9169 93.2919 19.4935 89.2805 19.4935Z" fill="white"/>
<path d="M100.399 18.49C100.399 18.8858 100.079 19.2067 99.6829 19.2067H98.021C97.6254 19.2067 97.3047 18.8858 97.3047 18.49V0.716667C97.3047 0.320861 97.6254 0 98.021 0H99.6829C100.079 0 100.399 0.320864 100.399 0.716667V9.22204C100.399 9.27431 100.441 9.31667 100.494 9.31667C100.539 9.31667 100.578 9.28497 100.587 9.24094C101.095 6.86201 102.844 4.67267 106.445 4.67267C110.37 4.67267 112.29 7.25267 112.29 10.7213V18.49C112.29 18.8858 111.97 19.2067 111.574 19.2067H109.941C109.545 19.2067 109.224 18.8858 109.224 18.49V11.4667C109.224 8.6 107.935 7.45333 104.984 7.45333C101.603 7.45333 100.399 9.288 100.399 12.298V18.49Z" fill="white"/>
<path d="M54.2782 40.7067H46.2554C45.8597 40.7067 45.5391 40.3858 45.5391 39.99V22.2167C45.5391 21.8209 45.8597 21.5 46.2554 21.5H54.2782C60.2381 21.5 63.9916 25.1693 63.9916 31.1033C63.9916 37.0373 60.2381 40.7067 54.2782 40.7067ZM54.2782 24.2807H49.3213C48.9256 24.2807 48.6049 24.6015 48.6049 24.9973V37.2093C48.6049 37.6052 48.9256 37.926 49.3213 37.926H54.2782C58.7195 37.926 60.7252 36.034 60.7252 31.1033C60.7252 26.1727 58.7195 24.2807 54.2782 24.2807Z" fill="white"/>
<path d="M71.0848 40.993C67.0734 40.993 65.125 38.327 65.125 35.0303V27.1757C65.125 26.7798 65.4457 26.459 65.8413 26.459H67.4746C67.8702 26.459 68.1909 26.7798 68.1909 27.1757V34.199C68.1909 36.865 69.423 38.2123 72.4315 38.2123C75.5834 38.2123 77.0447 36.607 77.0447 33.511V27.1757C77.0447 26.7798 77.3654 26.459 77.761 26.459H79.3942C79.7899 26.459 80.1105 26.7798 80.1105 27.1757V39.9896C80.1105 40.3855 79.7899 40.7063 79.3942 40.7063H77.9902C77.5946 40.7063 77.2739 40.3855 77.2739 39.9896V36.3858C77.2739 36.3337 77.2319 36.2917 77.1798 36.2917C77.1347 36.2917 77.096 36.3237 77.0869 36.3679C76.6034 38.7479 74.7137 40.993 71.0848 40.993Z" fill="white"/>
<path d="M88.9395 40.9935C84.269 40.9935 81.2031 38.3562 81.2031 33.5975C81.2031 29.1542 84.2403 26.1729 88.8821 26.1729C93.2947 26.1729 96.3033 28.6095 96.3033 32.9382C96.3033 33.2201 96.2949 33.4676 96.273 33.7043C96.2417 34.0445 95.943 34.2855 95.6015 34.2855H84.844C84.4366 34.2855 84.1062 34.6259 84.163 35.0297C84.4832 37.3003 85.8693 38.4995 88.8535 38.4995C91.8334 38.4995 93.0655 37.5249 93.0655 35.8335C93.0655 35.7069 93.1682 35.6042 93.2947 35.6042H95.9021C96.0447 35.6042 96.16 35.7198 96.16 35.8622C96.16 38.9009 93.1801 40.9935 88.9395 40.9935ZM88.8248 28.6095C86.002 28.6095 84.6042 29.7364 84.2196 31.8044C84.1439 32.2122 84.4775 32.5655 84.892 32.5655H93.3234C93.3551 32.5655 93.3807 32.54 93.3807 32.5082C93.3807 29.8709 91.8621 28.6095 88.8248 28.6095Z" fill="white"/>
<path d="M100.563 39.99C100.563 40.3858 100.243 40.7067 99.847 40.7067H98.1851C97.7894 40.7067 97.4688 40.3858 97.4688 39.99V22.2167C97.4688 21.8209 97.7894 21.5 98.1851 21.5H99.847C100.243 21.5 100.563 21.8209 100.563 22.2167V39.99Z" fill="white"/>
<path d="M109.023 40.9935C104.438 40.9935 101.831 39.1875 101.831 35.8909C101.831 35.8433 101.869 35.8049 101.917 35.8049H104.696C104.823 35.8049 104.925 35.9076 104.925 36.0342C104.925 37.8975 106.043 38.4995 109.023 38.4995C111.802 38.4995 112.633 37.9262 112.633 36.6648C112.633 35.4895 111.945 35.1169 109.911 34.8302L106.014 34.3142C103.321 33.9702 101.688 32.8235 101.688 30.4442C101.688 27.9502 103.951 26.1729 108.335 26.1729C112.69 26.1729 115.326 27.9215 115.326 31.3042C115.326 31.3517 115.288 31.3902 115.24 31.3902H112.432C112.337 31.3902 112.26 31.3133 112.26 31.2182C112.26 29.5269 111.401 28.6382 108.249 28.6382C105.642 28.6382 104.725 29.2115 104.725 30.5589C104.725 31.6769 105.298 32.0782 107.447 32.3649L110.742 32.8235C114.123 33.2535 115.67 34.4002 115.67 36.7508C115.67 39.4169 113.034 40.9935 109.023 40.9935Z" fill="white"/>
</mask>
<g mask="url(#mask0_607_16578)">
<path d="M48.4617 18.49C48.4617 18.8858 48.141 19.2067 47.7454 19.2067H46.0835C45.6879 19.2067 45.3672 18.8858 45.3672 18.49V0.716667C45.3672 0.320861 45.6879 0 46.0835 0H59.9229C60.3186 0 60.6393 0.320864 60.6393 0.716667V2.064C60.6393 2.45982 60.3186 2.78067 59.9229 2.78067H49.178C48.7824 2.78067 48.4617 3.10152 48.4617 3.49733V8.02667C48.4617 8.42248 48.7824 8.74333 49.178 8.74333H59.4931C59.8888 8.74333 60.2095 9.06418 60.2095 9.46V10.7787C60.2095 11.1745 59.8888 11.4953 59.4931 11.4953H49.178C48.7824 11.4953 48.4617 11.8162 48.4617 12.212V18.49Z" stroke="url(#paint10_linear_607_16578)" stroke-width="0.4"/>
</g>
<mask id="mask1_607_16578" style="mask-type:luminance" maskUnits="userSpaceOnUse" x="45" y="0" width="71" height="41">
<path d="M48.4617 18.49C48.4617 18.8858 48.141 19.2067 47.7454 19.2067H46.0835C45.6879 19.2067 45.3672 18.8858 45.3672 18.49V0.716667C45.3672 0.320861 45.6879 0 46.0835 0H59.9229C60.3186 0 60.6393 0.320864 60.6393 0.716667V2.064C60.6393 2.45982 60.3186 2.78067 59.9229 2.78067H49.178C48.7824 2.78067 48.4617 3.10152 48.4617 3.49733V8.02667C48.4617 8.42248 48.7824 8.74333 49.178 8.74333H59.4931C59.8888 8.74333 60.2095 9.06419 60.2095 9.46V10.7787C60.2095 11.1745 59.8888 11.4953 59.4931 11.4953H49.178C48.7824 11.4953 48.4617 11.8162 48.4617 12.212V18.49Z" fill="white"/>
<path d="M65.1727 18.49C65.1727 18.8858 64.852 19.2067 64.4563 19.2067H62.7945C62.3988 19.2067 62.0781 18.8858 62.0781 18.49V0.716667C62.0781 0.320861 62.3988 0 62.7945 0H64.4563C64.852 0 65.1727 0.320864 65.1727 0.716667V18.49Z" fill="white"/>
<path d="M71.3606 19.4935C68.4093 19.4935 66.5469 18.1175 66.5469 15.7669C66.5469 13.5595 68.3234 12.4129 71.1314 12.0975L76.9661 11.4776C77.3305 11.4389 77.607 11.1314 77.607 10.7649V10.5782C77.607 8.22752 76.5754 7.39619 73.8534 7.39619C71.2173 7.39619 69.9279 8.25619 69.9279 10.3489C69.9279 10.4122 69.8766 10.4635 69.8133 10.4635H66.9767C66.9134 10.4635 66.8621 10.4122 66.8621 10.3489C66.8621 7.10952 69.5554 4.67285 74.0826 4.67285C78.6098 4.67285 80.6442 7.13819 80.6442 10.5495V18.4902C80.6442 18.886 80.3235 19.2069 79.9279 19.2069H78.5239C78.1282 19.2069 77.8075 18.886 77.8075 18.4902V15.7677C77.8075 15.7039 77.7557 15.6522 77.692 15.6522C77.6413 15.6522 77.5967 15.6855 77.5809 15.7336C76.8104 18.0925 74.5616 19.4935 71.3606 19.4935ZM69.6414 15.5662C69.6414 16.7129 70.415 17.2575 72.1915 17.2575C75.1036 17.2575 77.1583 16.2835 77.542 14.0433C77.6141 13.6218 77.2349 13.2862 76.8102 13.3341L72.0196 13.8749C70.415 14.0755 69.6414 14.4482 69.6414 15.5662Z" fill="white"/>
<path d="M89.2805 19.4935C84.696 19.4935 82.0886 17.6875 82.0886 14.3909C82.0886 14.3434 82.1273 14.3049 82.1745 14.3049H84.9539C85.0807 14.3049 85.1831 14.4075 85.1831 14.5342C85.1831 16.3975 86.3006 16.9995 89.2805 16.9995C92.0598 16.9995 92.8908 16.4262 92.8908 15.1649C92.8908 13.9895 92.2031 13.6169 90.1687 13.3302L86.2719 12.8142C83.5785 12.4702 81.9453 11.3235 81.9453 8.94419C81.9453 6.45018 84.2089 4.67285 88.5928 4.67285C92.9481 4.67285 95.5842 6.42152 95.5842 9.80419C95.5842 9.85168 95.5457 9.89019 95.4982 9.89019H92.6902C92.5954 9.89019 92.5183 9.81317 92.5183 9.71819C92.5183 8.02685 91.6587 7.13819 88.5069 7.13819C85.8994 7.13819 84.9825 7.71152 84.9825 9.05885C84.9825 10.1769 85.5556 10.5782 87.7046 10.8649L90.9997 11.3235C94.3807 11.7535 95.928 12.9002 95.928 15.2509C95.928 17.9169 93.2919 19.4935 89.2805 19.4935Z" fill="white"/>
<path d="M100.399 18.49C100.399 18.8858 100.079 19.2067 99.6829 19.2067H98.021C97.6254 19.2067 97.3047 18.8858 97.3047 18.49V0.716667C97.3047 0.320861 97.6254 0 98.021 0H99.6829C100.079 0 100.399 0.320864 100.399 0.716667V9.22204C100.399 9.27431 100.441 9.31667 100.494 9.31667C100.539 9.31667 100.578 9.28497 100.587 9.24094C101.095 6.86201 102.844 4.67267 106.445 4.67267C110.37 4.67267 112.29 7.25267 112.29 10.7213V18.49C112.29 18.8858 111.97 19.2067 111.574 19.2067H109.941C109.545 19.2067 109.224 18.8858 109.224 18.49V11.4667C109.224 8.6 107.935 7.45333 104.984 7.45333C101.603 7.45333 100.399 9.288 100.399 12.298V18.49Z" fill="white"/>
<path d="M54.2782 40.7067H46.2554C45.8597 40.7067 45.5391 40.3858 45.5391 39.99V22.2167C45.5391 21.8209 45.8597 21.5 46.2554 21.5H54.2782C60.2381 21.5 63.9916 25.1693 63.9916 31.1033C63.9916 37.0373 60.2381 40.7067 54.2782 40.7067ZM54.2782 24.2807H49.3213C48.9256 24.2807 48.6049 24.6015 48.6049 24.9973V37.2093C48.6049 37.6052 48.9256 37.926 49.3213 37.926H54.2782C58.7195 37.926 60.7252 36.034 60.7252 31.1033C60.7252 26.1727 58.7195 24.2807 54.2782 24.2807Z" fill="white"/>
<path d="M71.0848 40.993C67.0734 40.993 65.125 38.327 65.125 35.0303V27.1757C65.125 26.7798 65.4457 26.459 65.8413 26.459H67.4746C67.8702 26.459 68.1909 26.7798 68.1909 27.1757V34.199C68.1909 36.865 69.423 38.2123 72.4315 38.2123C75.5834 38.2123 77.0447 36.607 77.0447 33.511V27.1757C77.0447 26.7798 77.3654 26.459 77.761 26.459H79.3942C79.7899 26.459 80.1105 26.7798 80.1105 27.1757V39.9896C80.1105 40.3855 79.7899 40.7063 79.3942 40.7063H77.9902C77.5946 40.7063 77.2739 40.3855 77.2739 39.9896V36.3858C77.2739 36.3337 77.2319 36.2917 77.1798 36.2917C77.1347 36.2917 77.096 36.3237 77.0869 36.3679C76.6034 38.7479 74.7137 40.993 71.0848 40.993Z" fill="white"/>
<path d="M88.9395 40.9935C84.269 40.9935 81.2031 38.3562 81.2031 33.5975C81.2031 29.1542 84.2403 26.1729 88.8821 26.1729C93.2947 26.1729 96.3033 28.6095 96.3033 32.9382C96.3033 33.2201 96.2949 33.4676 96.273 33.7043C96.2417 34.0445 95.943 34.2855 95.6015 34.2855H84.844C84.4366 34.2855 84.1062 34.6259 84.163 35.0297C84.4832 37.3003 85.8693 38.4995 88.8535 38.4995C91.8334 38.4995 93.0655 37.5249 93.0655 35.8335C93.0655 35.7069 93.1682 35.6042 93.2947 35.6042H95.9021C96.0447 35.6042 96.16 35.7198 96.16 35.8622C96.16 38.9009 93.1801 40.9935 88.9395 40.9935ZM88.8248 28.6095C86.002 28.6095 84.6042 29.7364 84.2196 31.8044C84.1439 32.2122 84.4775 32.5655 84.892 32.5655H93.3234C93.3551 32.5655 93.3807 32.54 93.3807 32.5082C93.3807 29.8709 91.8621 28.6095 88.8248 28.6095Z" fill="white"/>
<path d="M100.563 39.99C100.563 40.3858 100.243 40.7067 99.847 40.7067H98.1851C97.7894 40.7067 97.4688 40.3858 97.4688 39.99V22.2167C97.4688 21.8209 97.7894 21.5 98.1851 21.5H99.847C100.243 21.5 100.563 21.8209 100.563 22.2167V39.99Z" fill="white"/>
<path d="M109.023 40.9935C104.438 40.9935 101.831 39.1875 101.831 35.8909C101.831 35.8433 101.869 35.8049 101.917 35.8049H104.696C104.823 35.8049 104.925 35.9076 104.925 36.0342C104.925 37.8975 106.043 38.4995 109.023 38.4995C111.802 38.4995 112.633 37.9262 112.633 36.6648C112.633 35.4895 111.945 35.1169 109.911 34.8302L106.014 34.3142C103.321 33.9702 101.688 32.8235 101.688 30.4442C101.688 27.9502 103.951 26.1729 108.335 26.1729C112.69 26.1729 115.326 27.9215 115.326 31.3042C115.326 31.3517 115.288 31.3902 115.24 31.3902H112.432C112.337 31.3902 112.26 31.3133 112.26 31.2182C112.26 29.5269 111.401 28.6382 108.249 28.6382C105.642 28.6382 104.725 29.2115 104.725 30.5589C104.725 31.6769 105.298 32.0782 107.447 32.3649L110.742 32.8235C114.123 33.2535 115.67 34.4002 115.67 36.7508C115.67 39.4169 113.034 40.9935 109.023 40.9935Z" fill="white"/>
</mask>
<g mask="url(#mask1_607_16578)">
<path d="M65.1727 18.49C65.1727 18.8858 64.852 19.2067 64.4563 19.2067H62.7945C62.3988 19.2067 62.0781 18.8858 62.0781 18.49V0.716667C62.0781 0.320861 62.3988 0 62.7945 0H64.4563C64.852 0 65.1727 0.320864 65.1727 0.716667V18.49Z" stroke="url(#paint11_linear_607_16578)" stroke-width="0.4"/>
</g>
<mask id="mask2_607_16578" style="mask-type:luminance" maskUnits="userSpaceOnUse" x="45" y="0" width="71" height="41">
<path d="M48.4617 18.49C48.4617 18.8858 48.141 19.2067 47.7454 19.2067H46.0835C45.6879 19.2067 45.3672 18.8858 45.3672 18.49V0.716667C45.3672 0.320861 45.6879 0 46.0835 0H59.9229C60.3186 0 60.6393 0.320864 60.6393 0.716667V2.064C60.6393 2.45982 60.3186 2.78067 59.9229 2.78067H49.178C48.7824 2.78067 48.4617 3.10152 48.4617 3.49733V8.02667C48.4617 8.42248 48.7824 8.74333 49.178 8.74333H59.4931C59.8888 8.74333 60.2095 9.06419 60.2095 9.46V10.7787C60.2095 11.1745 59.8888 11.4953 59.4931 11.4953H49.178C48.7824 11.4953 48.4617 11.8162 48.4617 12.212V18.49Z" fill="white"/>
<path d="M65.1727 18.49C65.1727 18.8858 64.852 19.2067 64.4563 19.2067H62.7945C62.3988 19.2067 62.0781 18.8858 62.0781 18.49V0.716667C62.0781 0.320861 62.3988 0 62.7945 0H64.4563C64.852 0 65.1727 0.320864 65.1727 0.716667V18.49Z" fill="white"/>
<path d="M71.3606 19.4935C68.4093 19.4935 66.5469 18.1175 66.5469 15.7669C66.5469 13.5595 68.3234 12.4129 71.1314 12.0975L76.9661 11.4776C77.3305 11.4389 77.607 11.1314 77.607 10.7649V10.5782C77.607 8.22752 76.5754 7.39619 73.8534 7.39619C71.2173 7.39619 69.9279 8.25619 69.9279 10.3489C69.9279 10.4122 69.8766 10.4635 69.8133 10.4635H66.9767C66.9134 10.4635 66.8621 10.4122 66.8621 10.3489C66.8621 7.10952 69.5554 4.67285 74.0826 4.67285C78.6098 4.67285 80.6442 7.13819 80.6442 10.5495V18.4902C80.6442 18.886 80.3235 19.2069 79.9279 19.2069H78.5239C78.1282 19.2069 77.8075 18.886 77.8075 18.4902V15.7677C77.8075 15.7039 77.7557 15.6522 77.692 15.6522C77.6413 15.6522 77.5967 15.6855 77.5809 15.7336C76.8104 18.0925 74.5616 19.4935 71.3606 19.4935ZM69.6414 15.5662C69.6414 16.7129 70.415 17.2575 72.1915 17.2575C75.1036 17.2575 77.1583 16.2835 77.542 14.0433C77.6141 13.6218 77.2349 13.2862 76.8102 13.3341L72.0196 13.8749C70.415 14.0755 69.6414 14.4482 69.6414 15.5662Z" fill="white"/>
<path d="M89.2805 19.4935C84.696 19.4935 82.0886 17.6875 82.0886 14.3909C82.0886 14.3434 82.1273 14.3049 82.1745 14.3049H84.9539C85.0807 14.3049 85.1831 14.4075 85.1831 14.5342C85.1831 16.3975 86.3006 16.9995 89.2805 16.9995C92.0598 16.9995 92.8908 16.4262 92.8908 15.1649C92.8908 13.9895 92.2031 13.6169 90.1687 13.3302L86.2719 12.8142C83.5785 12.4702 81.9453 11.3235 81.9453 8.94419C81.9453 6.45018 84.2089 4.67285 88.5928 4.67285C92.9481 4.67285 95.5842 6.42152 95.5842 9.80419C95.5842 9.85168 95.5457 9.89019 95.4982 9.89019H92.6902C92.5954 9.89019 92.5183 9.81317 92.5183 9.71819C92.5183 8.02685 91.6587 7.13819 88.5069 7.13819C85.8994 7.13819 84.9825 7.71152 84.9825 9.05885C84.9825 10.1769 85.5556 10.5782 87.7046 10.8649L90.9997 11.3235C94.3807 11.7535 95.928 12.9002 95.928 15.2509C95.928 17.9169 93.2919 19.4935 89.2805 19.4935Z" fill="white"/>
<path d="M100.399 18.49C100.399 18.8858 100.079 19.2067 99.6829 19.2067H98.021C97.6254 19.2067 97.3047 18.8858 97.3047 18.49V0.716667C97.3047 0.320861 97.6254 0 98.021 0H99.6829C100.079 0 100.399 0.320864 100.399 0.716667V9.22204C100.399 9.27431 100.441 9.31667 100.494 9.31667C100.539 9.31667 100.578 9.28497 100.587 9.24094C101.095 6.86201 102.844 4.67267 106.445 4.67267C110.37 4.67267 112.29 7.25267 112.29 10.7213V18.49C112.29 18.8858 111.97 19.2067 111.574 19.2067H109.941C109.545 19.2067 109.224 18.8858 109.224 18.49V11.4667C109.224 8.6 107.935 7.45333 104.984 7.45333C101.603 7.45333 100.399 9.288 100.399 12.298V18.49Z" fill="white"/>
<path d="M54.2782 40.7067H46.2554C45.8597 40.7067 45.5391 40.3858 45.5391 39.99V22.2167C45.5391 21.8209 45.8597 21.5 46.2554 21.5H54.2782C60.2381 21.5 63.9916 25.1693 63.9916 31.1033C63.9916 37.0373 60.2381 40.7067 54.2782 40.7067ZM54.2782 24.2807H49.3213C48.9256 24.2807 48.6049 24.6015 48.6049 24.9973V37.2093C48.6049 37.6052 48.9256 37.926 49.3213 37.926H54.2782C58.7195 37.926 60.7252 36.034 60.7252 31.1033C60.7252 26.1727 58.7195 24.2807 54.2782 24.2807Z" fill="white"/>
<path d="M71.0848 40.993C67.0734 40.993 65.125 38.327 65.125 35.0303V27.1757C65.125 26.7798 65.4457 26.459 65.8413 26.459H67.4746C67.8702 26.459 68.1909 26.7798 68.1909 27.1757V34.199C68.1909 36.865 69.423 38.2123 72.4315 38.2123C75.5834 38.2123 77.0447 36.607 77.0447 33.511V27.1757C77.0447 26.7798 77.3654 26.459 77.761 26.459H79.3942C79.7899 26.459 80.1105 26.7798 80.1105 27.1757V39.9896C80.1105 40.3855 79.7899 40.7063 79.3942 40.7063H77.9902C77.5946 40.7063 77.2739 40.3855 77.2739 39.9896V36.3858C77.2739 36.3337 77.2319 36.2917 77.1798 36.2917C77.1347 36.2917 77.096 36.3237 77.0869 36.3679C76.6034 38.7479 74.7137 40.993 71.0848 40.993Z" fill="white"/>
<path d="M88.9395 40.9935C84.269 40.9935 81.2031 38.3562 81.2031 33.5975C81.2031 29.1542 84.2403 26.1729 88.8821 26.1729C93.2947 26.1729 96.3033 28.6095 96.3033 32.9382C96.3033 33.2201 96.2949 33.4676 96.273 33.7043C96.2417 34.0445 95.943 34.2855 95.6015 34.2855H84.844C84.4366 34.2855 84.1062 34.6259 84.163 35.0297C84.4832 37.3003 85.8693 38.4995 88.8535 38.4995C91.8334 38.4995 93.0655 37.5249 93.0655 35.8335C93.0655 35.7069 93.1682 35.6042 93.2947 35.6042H95.9021C96.0447 35.6042 96.16 35.7198 96.16 35.8622C96.16 38.9009 93.1801 40.9935 88.9395 40.9935ZM88.8248 28.6095C86.002 28.6095 84.6042 29.7364 84.2196 31.8044C84.1439 32.2122 84.4775 32.5655 84.892 32.5655H93.3234C93.3551 32.5655 93.3807 32.54 93.3807 32.5082C93.3807 29.8709 91.8621 28.6095 88.8248 28.6095Z" fill="white"/>
<path d="M100.563 39.99C100.563 40.3858 100.243 40.7067 99.847 40.7067H98.1851C97.7894 40.7067 97.4688 40.3858 97.4688 39.99V22.2167C97.4688 21.8209 97.7894 21.5 98.1851 21.5H99.847C100.243 21.5 100.563 21.8209 100.563 22.2167V39.99Z" fill="white"/>
<path d="M109.023 40.9935C104.438 40.9935 101.831 39.1875 101.831 35.8909C101.831 35.8433 101.869 35.8049 101.917 35.8049H104.696C104.823 35.8049 104.925 35.9076 104.925 36.0342C104.925 37.8975 106.043 38.4995 109.023 38.4995C111.802 38.4995 112.633 37.9262 112.633 36.6648C112.633 35.4895 111.945 35.1169 109.911 34.8302L106.014 34.3142C103.321 33.9702 101.688 32.8235 101.688 30.4442C101.688 27.9502 103.951 26.1729 108.335 26.1729C112.69 26.1729 115.326 27.9215 115.326 31.3042C115.326 31.3517 115.288 31.3902 115.24 31.3902H112.432C112.337 31.3902 112.26 31.3133 112.26 31.2182C112.26 29.5269 111.401 28.6382 108.249 28.6382C105.642 28.6382 104.725 29.2115 104.725 30.5589C104.725 31.6769 105.298 32.0782 107.447 32.3649L110.742 32.8235C114.123 33.2535 115.67 34.4002 115.67 36.7508C115.67 39.4169 113.034 40.9935 109.023 40.9935Z" fill="white"/>
</mask>
<g mask="url(#mask2_607_16578)">
<path d="M71.3606 19.4935C68.4093 19.4935 66.5469 18.1175 66.5469 15.7669C66.5469 13.5595 68.3234 12.4129 71.1314 12.0975L76.9661 11.4776C77.3305 11.4389 77.607 11.1314 77.607 10.7649V10.5782C77.607 8.22752 76.5754 7.39619 73.8534 7.39619C71.2173 7.39619 69.9279 8.25619 69.9279 10.3489C69.9279 10.4122 69.8766 10.4635 69.8133 10.4635H66.9767C66.9134 10.4635 66.8621 10.4122 66.8621 10.3489C66.8621 7.10952 69.5554 4.67285 74.0826 4.67285C78.6098 4.67285 80.6442 7.13819 80.6442 10.5495V18.4902C80.6442 18.886 80.3235 19.2069 79.9279 19.2069H78.5239C78.1282 19.2069 77.8075 18.886 77.8075 18.4902V15.7677C77.8075 15.7039 77.7557 15.6522 77.692 15.6522C77.6413 15.6522 77.5967 15.6855 77.5809 15.7336C76.8104 18.0925 74.5616 19.4935 71.3606 19.4935ZM69.6414 15.5662C69.6414 16.7129 70.415 17.2575 72.1915 17.2575C75.1036 17.2575 77.1583 16.2835 77.542 14.0433C77.6141 13.6218 77.2349 13.2862 76.8102 13.3341L72.0196 13.8749C70.415 14.0755 69.6414 14.4482 69.6414 15.5662Z" stroke="url(#paint12_linear_607_16578)" stroke-width="0.4"/>
</g>
<mask id="mask3_607_16578" style="mask-type:luminance" maskUnits="userSpaceOnUse" x="45" y="0" width="71" height="41">
<path d="M48.4617 18.49C48.4617 18.8858 48.141 19.2067 47.7454 19.2067H46.0835C45.6879 19.2067 45.3672 18.8858 45.3672 18.49V0.716667C45.3672 0.320861 45.6879 0 46.0835 0H59.9229C60.3186 0 60.6393 0.320864 60.6393 0.716667V2.064C60.6393 2.45982 60.3186 2.78067 59.9229 2.78067H49.178C48.7824 2.78067 48.4617 3.10152 48.4617 3.49733V8.02667C48.4617 8.42248 48.7824 8.74333 49.178 8.74333H59.4931C59.8888 8.74333 60.2095 9.06419 60.2095 9.46V10.7787C60.2095 11.1745 59.8888 11.4953 59.4931 11.4953H49.178C48.7824 11.4953 48.4617 11.8162 48.4617 12.212V18.49Z" fill="white"/>
<path d="M65.1727 18.49C65.1727 18.8858 64.852 19.2067 64.4563 19.2067H62.7945C62.3988 19.2067 62.0781 18.8858 62.0781 18.49V0.716667C62.0781 0.320861 62.3988 0 62.7945 0H64.4563C64.852 0 65.1727 0.320864 65.1727 0.716667V18.49Z" fill="white"/>
<path d="M71.3606 19.4935C68.4093 19.4935 66.5469 18.1175 66.5469 15.7669C66.5469 13.5595 68.3234 12.4129 71.1314 12.0975L76.9661 11.4776C77.3305 11.4389 77.607 11.1314 77.607 10.7649V10.5782C77.607 8.22752 76.5754 7.39619 73.8534 7.39619C71.2173 7.39619 69.9279 8.25619 69.9279 10.3489C69.9279 10.4122 69.8766 10.4635 69.8133 10.4635H66.9767C66.9134 10.4635 66.8621 10.4122 66.8621 10.3489C66.8621 7.10952 69.5554 4.67285 74.0826 4.67285C78.6098 4.67285 80.6442 7.13819 80.6442 10.5495V18.4902C80.6442 18.886 80.3235 19.2069 79.9279 19.2069H78.5239C78.1282 19.2069 77.8075 18.886 77.8075 18.4902V15.7677C77.8075 15.7039 77.7557 15.6522 77.692 15.6522C77.6413 15.6522 77.5967 15.6855 77.5809 15.7336C76.8104 18.0925 74.5616 19.4935 71.3606 19.4935ZM69.6414 15.5662C69.6414 16.7129 70.415 17.2575 72.1915 17.2575C75.1036 17.2575 77.1583 16.2835 77.542 14.0433C77.6141 13.6218 77.2349 13.2862 76.8102 13.3341L72.0196 13.8749C70.415 14.0755 69.6414 14.4482 69.6414 15.5662Z" fill="white"/>
<path d="M89.2805 19.4935C84.696 19.4935 82.0886 17.6875 82.0886 14.3909C82.0886 14.3434 82.1273 14.3049 82.1745 14.3049H84.9539C85.0807 14.3049 85.1831 14.4075 85.1831 14.5342C85.1831 16.3975 86.3006 16.9995 89.2805 16.9995C92.0598 16.9995 92.8908 16.4262 92.8908 15.1649C92.8908 13.9895 92.2031 13.6169 90.1687 13.3302L86.2719 12.8142C83.5785 12.4702 81.9453 11.3235 81.9453 8.94419C81.9453 6.45018 84.2089 4.67285 88.5928 4.67285C92.9481 4.67285 95.5842 6.42152 95.5842 9.80419C95.5842 9.85168 95.5457 9.89019 95.4982 9.89019H92.6902C92.5954 9.89019 92.5183 9.81317 92.5183 9.71819C92.5183 8.02685 91.6587 7.13819 88.5069 7.13819C85.8994 7.13819 84.9825 7.71152 84.9825 9.05885C84.9825 10.1769 85.5556 10.5782 87.7046 10.8649L90.9997 11.3235C94.3807 11.7535 95.928 12.9002 95.928 15.2509C95.928 17.9169 93.2919 19.4935 89.2805 19.4935Z" fill="white"/>
<path d="M100.399 18.49C100.399 18.8858 100.079 19.2067 99.6829 19.2067H98.021C97.6254 19.2067 97.3047 18.8858 97.3047 18.49V0.716667C97.3047 0.320861 97.6254 0 98.021 0H99.6829C100.079 0 100.399 0.320864 100.399 0.716667V9.22204C100.399 9.27431 100.441 9.31667 100.494 9.31667C100.539 9.31667 100.578 9.28497 100.587 9.24094C101.095 6.86201 102.844 4.67267 106.445 4.67267C110.37 4.67267 112.29 7.25267 112.29 10.7213V18.49C112.29 18.8858 111.97 19.2067 111.574 19.2067H109.941C109.545 19.2067 109.224 18.8858 109.224 18.49V11.4667C109.224 8.6 107.935 7.45333 104.984 7.45333C101.603 7.45333 100.399 9.288 100.399 12.298V18.49Z" fill="white"/>
<path d="M54.2782 40.7067H46.2554C45.8597 40.7067 45.5391 40.3858 45.5391 39.99V22.2167C45.5391 21.8209 45.8597 21.5 46.2554 21.5H54.2782C60.2381 21.5 63.9916 25.1693 63.9916 31.1033C63.9916 37.0373 60.2381 40.7067 54.2782 40.7067ZM54.2782 24.2807H49.3213C48.9256 24.2807 48.6049 24.6015 48.6049 24.9973V37.2093C48.6049 37.6052 48.9256 37.926 49.3213 37.926H54.2782C58.7195 37.926 60.7252 36.034 60.7252 31.1033C60.7252 26.1727 58.7195 24.2807 54.2782 24.2807Z" fill="white"/>
<path d="M71.0848 40.993C67.0734 40.993 65.125 38.327 65.125 35.0303V27.1757C65.125 26.7798 65.4457 26.459 65.8413 26.459H67.4746C67.8702 26.459 68.1909 26.7798 68.1909 27.1757V34.199C68.1909 36.865 69.423 38.2123 72.4315 38.2123C75.5834 38.2123 77.0447 36.607 77.0447 33.511V27.1757C77.0447 26.7798 77.3654 26.459 77.761 26.459H79.3942C79.7899 26.459 80.1105 26.7798 80.1105 27.1757V39.9896C80.1105 40.3855 79.7899 40.7063 79.3942 40.7063H77.9902C77.5946 40.7063 77.2739 40.3855 77.2739 39.9896V36.3858C77.2739 36.3337 77.2319 36.2917 77.1798 36.2917C77.1347 36.2917 77.096 36.3237 77.0869 36.3679C76.6034 38.7479 74.7137 40.993 71.0848 40.993Z" fill="white"/>
<path d="M88.9395 40.9935C84.269 40.9935 81.2031 38.3562 81.2031 33.5975C81.2031 29.1542 84.2403 26.1729 88.8821 26.1729C93.2947 26.1729 96.3033 28.6095 96.3033 32.9382C96.3033 33.2201 96.2949 33.4676 96.273 33.7043C96.2417 34.0445 95.943 34.2855 95.6015 34.2855H84.844C84.4366 34.2855 84.1062 34.6259 84.163 35.0297C84.4832 37.3003 85.8693 38.4995 88.8535 38.4995C91.8334 38.4995 93.0655 37.5249 93.0655 35.8335C93.0655 35.7069 93.1682 35.6042 93.2947 35.6042H95.9021C96.0447 35.6042 96.16 35.7198 96.16 35.8622C96.16 38.9009 93.1801 40.9935 88.9395 40.9935ZM88.8248 28.6095C86.002 28.6095 84.6042 29.7364 84.2196 31.8044C84.1439 32.2122 84.4775 32.5655 84.892 32.5655H93.3234C93.3551 32.5655 93.3807 32.54 93.3807 32.5082C93.3807 29.8709 91.8621 28.6095 88.8248 28.6095Z" fill="white"/>
<path d="M100.563 39.99C100.563 40.3858 100.243 40.7067 99.847 40.7067H98.1851C97.7894 40.7067 97.4688 40.3858 97.4688 39.99V22.2167C97.4688 21.8209 97.7894 21.5 98.1851 21.5H99.847C100.243 21.5 100.563 21.8209 100.563 22.2167V39.99Z" fill="white"/>
<path d="M109.023 40.9935C104.438 40.9935 101.831 39.1875 101.831 35.8909C101.831 35.8433 101.869 35.8049 101.917 35.8049H104.696C104.823 35.8049 104.925 35.9076 104.925 36.0342C104.925 37.8975 106.043 38.4995 109.023 38.4995C111.802 38.4995 112.633 37.9262 112.633 36.6648C112.633 35.4895 111.945 35.1169 109.911 34.8302L106.014 34.3142C103.321 33.9702 101.688 32.8235 101.688 30.4442C101.688 27.9502 103.951 26.1729 108.335 26.1729C112.69 26.1729 115.326 27.9215 115.326 31.3042C115.326 31.3517 115.288 31.3902 115.24 31.3902H112.432C112.337 31.3902 112.26 31.3133 112.26 31.2182C112.26 29.5269 111.401 28.6382 108.249 28.6382C105.642 28.6382 104.725 29.2115 104.725 30.5589C104.725 31.6769 105.298 32.0782 107.447 32.3649L110.742 32.8235C114.123 33.2535 115.67 34.4002 115.67 36.7508C115.67 39.4169 113.034 40.9935 109.023 40.9935Z" fill="white"/>
</mask>
<g mask="url(#mask3_607_16578)">
<path d="M89.2805 19.4935C84.696 19.4935 82.0886 17.6875 82.0886 14.3909C82.0886 14.3434 82.1273 14.3049 82.1745 14.3049H84.9539C85.0807 14.3049 85.1831 14.4075 85.1831 14.5342C85.1831 16.3975 86.3006 16.9995 89.2805 16.9995C92.0598 16.9995 92.8908 16.4262 92.8908 15.1649C92.8908 13.9895 92.2031 13.6169 90.1687 13.3302L86.2719 12.8142C83.5785 12.4702 81.9453 11.3235 81.9453 8.94419C81.9453 6.45018 84.2089 4.67285 88.5928 4.67285C92.9481 4.67285 95.5842 6.42152 95.5842 9.80419C95.5842 9.85168 95.5457 9.89019 95.4982 9.89019H92.6902C92.5954 9.89019 92.5183 9.81317 92.5183 9.71819C92.5183 8.02685 91.6587 7.13818 88.5069 7.13818C85.8994 7.13818 84.9825 7.71152 84.9825 9.05885C84.9825 10.1769 85.5556 10.5782 87.7046 10.8649L90.9997 11.3235C94.3807 11.7535 95.928 12.9002 95.928 15.2509C95.928 17.9169 93.2919 19.4935 89.2805 19.4935Z" stroke="url(#paint13_linear_607_16578)" stroke-width="0.4"/>
</g>
<mask id="mask4_607_16578" style="mask-type:luminance" maskUnits="userSpaceOnUse" x="45" y="0" width="71" height="41">
<path d="M48.4617 18.49C48.4617 18.8858 48.141 19.2067 47.7454 19.2067H46.0835C45.6879 19.2067 45.3672 18.8858 45.3672 18.49V0.716667C45.3672 0.320861 45.6879 0 46.0835 0H59.9229C60.3186 0 60.6393 0.320864 60.6393 0.716667V2.064C60.6393 2.45982 60.3186 2.78067 59.9229 2.78067H49.178C48.7824 2.78067 48.4617 3.10152 48.4617 3.49733V8.02667C48.4617 8.42248 48.7824 8.74333 49.178 8.74333H59.4931C59.8888 8.74333 60.2095 9.06419 60.2095 9.46V10.7787C60.2095 11.1745 59.8888 11.4953 59.4931 11.4953H49.178C48.7824 11.4953 48.4617 11.8162 48.4617 12.212V18.49Z" fill="white"/>
<path d="M65.1727 18.49C65.1727 18.8858 64.852 19.2067 64.4563 19.2067H62.7945C62.3988 19.2067 62.0781 18.8858 62.0781 18.49V0.716667C62.0781 0.320861 62.3988 0 62.7945 0H64.4563C64.852 0 65.1727 0.320864 65.1727 0.716667V18.49Z" fill="white"/>
<path d="M71.3606 19.4935C68.4093 19.4935 66.5469 18.1175 66.5469 15.7669C66.5469 13.5595 68.3234 12.4129 71.1314 12.0975L76.9661 11.4776C77.3305 11.4389 77.607 11.1314 77.607 10.7649V10.5782C77.607 8.22752 76.5754 7.39619 73.8534 7.39619C71.2173 7.39619 69.9279 8.25619 69.9279 10.3489C69.9279 10.4122 69.8766 10.4635 69.8133 10.4635H66.9767C66.9134 10.4635 66.8621 10.4122 66.8621 10.3489C66.8621 7.10952 69.5554 4.67285 74.0826 4.67285C78.6098 4.67285 80.6442 7.13819 80.6442 10.5495V18.4902C80.6442 18.886 80.3235 19.2069 79.9279 19.2069H78.5239C78.1282 19.2069 77.8075 18.886 77.8075 18.4902V15.7677C77.8075 15.7039 77.7557 15.6522 77.692 15.6522C77.6413 15.6522 77.5967 15.6855 77.5809 15.7336C76.8104 18.0925 74.5616 19.4935 71.3606 19.4935ZM69.6414 15.5662C69.6414 16.7129 70.415 17.2575 72.1915 17.2575C75.1036 17.2575 77.1583 16.2835 77.542 14.0433C77.6141 13.6218 77.2349 13.2862 76.8102 13.3341L72.0196 13.8749C70.415 14.0755 69.6414 14.4482 69.6414 15.5662Z" fill="white"/>
<path d="M89.2805 19.4935C84.696 19.4935 82.0886 17.6875 82.0886 14.3909C82.0886 14.3434 82.1273 14.3049 82.1745 14.3049H84.9539C85.0807 14.3049 85.1831 14.4075 85.1831 14.5342C85.1831 16.3975 86.3006 16.9995 89.2805 16.9995C92.0598 16.9995 92.8908 16.4262 92.8908 15.1649C92.8908 13.9895 92.2031 13.6169 90.1687 13.3302L86.2719 12.8142C83.5785 12.4702 81.9453 11.3235 81.9453 8.94419C81.9453 6.45018 84.2089 4.67285 88.5928 4.67285C92.9481 4.67285 95.5842 6.42152 95.5842 9.80419C95.5842 9.85168 95.5457 9.89019 95.4982 9.89019H92.6902C92.5954 9.89019 92.5183 9.81317 92.5183 9.71819C92.5183 8.02685 91.6587 7.13819 88.5069 7.13819C85.8994 7.13819 84.9825 7.71152 84.9825 9.05885C84.9825 10.1769 85.5556 10.5782 87.7046 10.8649L90.9997 11.3235C94.3807 11.7535 95.928 12.9002 95.928 15.2509C95.928 17.9169 93.2919 19.4935 89.2805 19.4935Z" fill="white"/>
<path d="M100.399 18.49C100.399 18.8858 100.079 19.2067 99.6829 19.2067H98.021C97.6254 19.2067 97.3047 18.8858 97.3047 18.49V0.716667C97.3047 0.320861 97.6254 0 98.021 0H99.6829C100.079 0 100.399 0.320864 100.399 0.716667V9.22204C100.399 9.27431 100.441 9.31667 100.494 9.31667C100.539 9.31667 100.578 9.28497 100.587 9.24094C101.095 6.86201 102.844 4.67267 106.445 4.67267C110.37 4.67267 112.29 7.25267 112.29 10.7213V18.49C112.29 18.8858 111.97 19.2067 111.574 19.2067H109.941C109.545 19.2067 109.224 18.8858 109.224 18.49V11.4667C109.224 8.6 107.935 7.45333 104.984 7.45333C101.603 7.45333 100.399 9.288 100.399 12.298V18.49Z" fill="white"/>
<path d="M54.2782 40.7067H46.2554C45.8597 40.7067 45.5391 40.3858 45.5391 39.99V22.2167C45.5391 21.8209 45.8597 21.5 46.2554 21.5H54.2782C60.2381 21.5 63.9916 25.1693 63.9916 31.1033C63.9916 37.0373 60.2381 40.7067 54.2782 40.7067ZM54.2782 24.2807H49.3213C48.9256 24.2807 48.6049 24.6015 48.6049 24.9973V37.2093C48.6049 37.6052 48.9256 37.926 49.3213 37.926H54.2782C58.7195 37.926 60.7252 36.034 60.7252 31.1033C60.7252 26.1727 58.7195 24.2807 54.2782 24.2807Z" fill="white"/>
<path d="M71.0848 40.993C67.0734 40.993 65.125 38.327 65.125 35.0303V27.1757C65.125 26.7798 65.4457 26.459 65.8413 26.459H67.4746C67.8702 26.459 68.1909 26.7798 68.1909 27.1757V34.199C68.1909 36.865 69.423 38.2123 72.4315 38.2123C75.5834 38.2123 77.0447 36.607 77.0447 33.511V27.1757C77.0447 26.7798 77.3654 26.459 77.761 26.459H79.3942C79.7899 26.459 80.1105 26.7798 80.1105 27.1757V39.9896C80.1105 40.3855 79.7899 40.7063 79.3942 40.7063H77.9902C77.5946 40.7063 77.2739 40.3855 77.2739 39.9896V36.3858C77.2739 36.3337 77.2319 36.2917 77.1798 36.2917C77.1347 36.2917 77.096 36.3237 77.0869 36.3679C76.6034 38.7479 74.7137 40.993 71.0848 40.993Z" fill="white"/>
<path d="M88.9395 40.9935C84.269 40.9935 81.2031 38.3562 81.2031 33.5975C81.2031 29.1542 84.2403 26.1729 88.8821 26.1729C93.2947 26.1729 96.3033 28.6095 96.3033 32.9382C96.3033 33.2201 96.2949 33.4676 96.273 33.7043C96.2417 34.0445 95.943 34.2855 95.6015 34.2855H84.844C84.4366 34.2855 84.1062 34.6259 84.163 35.0297C84.4832 37.3003 85.8693 38.4995 88.8535 38.4995C91.8334 38.4995 93.0655 37.5249 93.0655 35.8335C93.0655 35.7069 93.1682 35.6042 93.2947 35.6042H95.9021C96.0447 35.6042 96.16 35.7198 96.16 35.8622C96.16 38.9009 93.1801 40.9935 88.9395 40.9935ZM88.8248 28.6095C86.002 28.6095 84.6042 29.7364 84.2196 31.8044C84.1439 32.2122 84.4775 32.5655 84.892 32.5655H93.3234C93.3551 32.5655 93.3807 32.54 93.3807 32.5082C93.3807 29.8709 91.8621 28.6095 88.8248 28.6095Z" fill="white"/>
<path d="M100.563 39.99C100.563 40.3858 100.243 40.7067 99.847 40.7067H98.1851C97.7894 40.7067 97.4688 40.3858 97.4688 39.99V22.2167C97.4688 21.8209 97.7894 21.5 98.1851 21.5H99.847C100.243 21.5 100.563 21.8209 100.563 22.2167V39.99Z" fill="white"/>
<path d="M109.023 40.9935C104.438 40.9935 101.831 39.1875 101.831 35.8909C101.831 35.8433 101.869 35.8049 101.917 35.8049H104.696C104.823 35.8049 104.925 35.9076 104.925 36.0342C104.925 37.8975 106.043 38.4995 109.023 38.4995C111.802 38.4995 112.633 37.9262 112.633 36.6648C112.633 35.4895 111.945 35.1169 109.911 34.8302L106.014 34.3142C103.321 33.9702 101.688 32.8235 101.688 30.4442C101.688 27.9502 103.951 26.1729 108.335 26.1729C112.69 26.1729 115.326 27.9215 115.326 31.3042C115.326 31.3517 115.288 31.3902 115.24 31.3902H112.432C112.337 31.3902 112.26 31.3133 112.26 31.2182C112.26 29.5269 111.401 28.6382 108.249 28.6382C105.642 28.6382 104.725 29.2115 104.725 30.5589C104.725 31.6769 105.298 32.0782 107.447 32.3649L110.742 32.8235C114.123 33.2535 115.67 34.4002 115.67 36.7508C115.67 39.4169 113.034 40.9935 109.023 40.9935Z" fill="white"/>
</mask>
<g mask="url(#mask4_607_16578)">
<path d="M100.399 18.49C100.399 18.8858 100.079 19.2067 99.6829 19.2067H98.021C97.6254 19.2067 97.3047 18.8858 97.3047 18.49V0.716667C97.3047 0.320861 97.6254 0 98.021 0H99.6829C100.079 0 100.399 0.320864 100.399 0.716667V9.22204C100.399 9.27431 100.441 9.31667 100.494 9.31667C100.539 9.31667 100.578 9.28497 100.587 9.24094C101.095 6.86201 102.844 4.67267 106.445 4.67267C110.37 4.67267 112.29 7.25267 112.29 10.7213V18.49C112.29 18.8858 111.97 19.2067 111.574 19.2067H109.941C109.545 19.2067 109.224 18.8858 109.224 18.49V11.4667C109.224 8.6 107.935 7.45333 104.984 7.45333C101.603 7.45333 100.399 9.288 100.399 12.298V18.49Z" stroke="url(#paint14_linear_607_16578)" stroke-width="0.4"/>
</g>
<mask id="mask5_607_16578" style="mask-type:luminance" maskUnits="userSpaceOnUse" x="45" y="0" width="71" height="41">
<path d="M48.4617 18.49C48.4617 18.8858 48.141 19.2067 47.7454 19.2067H46.0835C45.6879 19.2067 45.3672 18.8858 45.3672 18.49V0.716667C45.3672 0.320861 45.6879 0 46.0835 0H59.9229C60.3186 0 60.6393 0.320864 60.6393 0.716667V2.064C60.6393 2.45982 60.3186 2.78067 59.9229 2.78067H49.178C48.7824 2.78067 48.4617 3.10152 48.4617 3.49733V8.02667C48.4617 8.42248 48.7824 8.74333 49.178 8.74333H59.4931C59.8888 8.74333 60.2095 9.06419 60.2095 9.46V10.7787C60.2095 11.1745 59.8888 11.4953 59.4931 11.4953H49.178C48.7824 11.4953 48.4617 11.8162 48.4617 12.212V18.49Z" fill="white"/>
<path d="M65.1727 18.49C65.1727 18.8858 64.852 19.2067 64.4563 19.2067H62.7945C62.3988 19.2067 62.0781 18.8858 62.0781 18.49V0.716667C62.0781 0.320861 62.3988 0 62.7945 0H64.4563C64.852 0 65.1727 0.320864 65.1727 0.716667V18.49Z" fill="white"/>
<path d="M71.3606 19.4935C68.4093 19.4935 66.5469 18.1175 66.5469 15.7669C66.5469 13.5595 68.3234 12.4129 71.1314 12.0975L76.9661 11.4776C77.3305 11.4389 77.607 11.1314 77.607 10.7649V10.5782C77.607 8.22752 76.5754 7.39619 73.8534 7.39619C71.2173 7.39619 69.9279 8.25619 69.9279 10.3489C69.9279 10.4122 69.8766 10.4635 69.8133 10.4635H66.9767C66.9134 10.4635 66.8621 10.4122 66.8621 10.3489C66.8621 7.10952 69.5554 4.67285 74.0826 4.67285C78.6098 4.67285 80.6442 7.13819 80.6442 10.5495V18.4902C80.6442 18.886 80.3235 19.2069 79.9279 19.2069H78.5239C78.1282 19.2069 77.8075 18.886 77.8075 18.4902V15.7677C77.8075 15.7039 77.7557 15.6522 77.692 15.6522C77.6413 15.6522 77.5967 15.6855 77.5809 15.7336C76.8104 18.0925 74.5616 19.4935 71.3606 19.4935ZM69.6414 15.5662C69.6414 16.7129 70.415 17.2575 72.1915 17.2575C75.1036 17.2575 77.1583 16.2835 77.542 14.0433C77.6141 13.6218 77.2349 13.2862 76.8102 13.3341L72.0196 13.8749C70.415 14.0755 69.6414 14.4482 69.6414 15.5662Z" fill="white"/>
<path d="M89.2805 19.4935C84.696 19.4935 82.0886 17.6875 82.0886 14.3909C82.0886 14.3434 82.1273 14.3049 82.1745 14.3049H84.9539C85.0807 14.3049 85.1831 14.4075 85.1831 14.5342C85.1831 16.3975 86.3006 16.9995 89.2805 16.9995C92.0598 16.9995 92.8908 16.4262 92.8908 15.1649C92.8908 13.9895 92.2031 13.6169 90.1687 13.3302L86.2719 12.8142C83.5785 12.4702 81.9453 11.3235 81.9453 8.94419C81.9453 6.45018 84.2089 4.67285 88.5928 4.67285C92.9481 4.67285 95.5842 6.42152 95.5842 9.80419C95.5842 9.85168 95.5457 9.89019 95.4982 9.89019H92.6902C92.5954 9.89019 92.5183 9.81317 92.5183 9.71819C92.5183 8.02685 91.6587 7.13819 88.5069 7.13819C85.8994 7.13819 84.9825 7.71152 84.9825 9.05885C84.9825 10.1769 85.5556 10.5782 87.7046 10.8649L90.9997 11.3235C94.3807 11.7535 95.928 12.9002 95.928 15.2509C95.928 17.9169 93.2919 19.4935 89.2805 19.4935Z" fill="white"/>
<path d="M100.399 18.49C100.399 18.8858 100.079 19.2067 99.6829 19.2067H98.021C97.6254 19.2067 97.3047 18.8858 97.3047 18.49V0.716667C97.3047 0.320861 97.6254 0 98.021 0H99.6829C100.079 0 100.399 0.320864 100.399 0.716667V9.22204C100.399 9.27431 100.441 9.31667 100.494 9.31667C100.539 9.31667 100.578 9.28497 100.587 9.24094C101.095 6.86201 102.844 4.67267 106.445 4.67267C110.37 4.67267 112.29 7.25267 112.29 10.7213V18.49C112.29 18.8858 111.97 19.2067 111.574 19.2067H109.941C109.545 19.2067 109.224 18.8858 109.224 18.49V11.4667C109.224 8.6 107.935 7.45333 104.984 7.45333C101.603 7.45333 100.399 9.288 100.399 12.298V18.49Z" fill="white"/>
<path d="M54.2782 40.7067H46.2554C45.8597 40.7067 45.5391 40.3858 45.5391 39.99V22.2167C45.5391 21.8209 45.8597 21.5 46.2554 21.5H54.2782C60.2381 21.5 63.9916 25.1693 63.9916 31.1033C63.9916 37.0373 60.2381 40.7067 54.2782 40.7067ZM54.2782 24.2807H49.3213C48.9256 24.2807 48.6049 24.6015 48.6049 24.9973V37.2093C48.6049 37.6052 48.9256 37.926 49.3213 37.926H54.2782C58.7195 37.926 60.7252 36.034 60.7252 31.1033C60.7252 26.1727 58.7195 24.2807 54.2782 24.2807Z" fill="white"/>
<path d="M71.0848 40.993C67.0734 40.993 65.125 38.327 65.125 35.0303V27.1757C65.125 26.7798 65.4457 26.459 65.8413 26.459H67.4746C67.8702 26.459 68.1909 26.7798 68.1909 27.1757V34.199C68.1909 36.865 69.423 38.2123 72.4315 38.2123C75.5834 38.2123 77.0447 36.607 77.0447 33.511V27.1757C77.0447 26.7798 77.3654 26.459 77.761 26.459H79.3942C79.7899 26.459 80.1105 26.7798 80.1105 27.1757V39.9896C80.1105 40.3855 79.7899 40.7063 79.3942 40.7063H77.9902C77.5946 40.7063 77.2739 40.3855 77.2739 39.9896V36.3858C77.2739 36.3337 77.2319 36.2917 77.1798 36.2917C77.1347 36.2917 77.096 36.3237 77.0869 36.3679C76.6034 38.7479 74.7137 40.993 71.0848 40.993Z" fill="white"/>
<path d="M88.9395 40.9935C84.269 40.9935 81.2031 38.3562 81.2031 33.5975C81.2031 29.1542 84.2403 26.1729 88.8821 26.1729C93.2947 26.1729 96.3033 28.6095 96.3033 32.9382C96.3033 33.2201 96.2949 33.4676 96.273 33.7043C96.2417 34.0445 95.943 34.2855 95.6015 34.2855H84.844C84.4366 34.2855 84.1062 34.6259 84.163 35.0297C84.4832 37.3003 85.8693 38.4995 88.8535 38.4995C91.8334 38.4995 93.0655 37.5249 93.0655 35.8335C93.0655 35.7069 93.1682 35.6042 93.2947 35.6042H95.9021C96.0447 35.6042 96.16 35.7198 96.16 35.8622C96.16 38.9009 93.1801 40.9935 88.9395 40.9935ZM88.8248 28.6095C86.002 28.6095 84.6042 29.7364 84.2196 31.8044C84.1439 32.2122 84.4775 32.5655 84.892 32.5655H93.3234C93.3551 32.5655 93.3807 32.54 93.3807 32.5082C93.3807 29.8709 91.8621 28.6095 88.8248 28.6095Z" fill="white"/>
<path d="M100.563 39.99C100.563 40.3858 100.243 40.7067 99.847 40.7067H98.1851C97.7894 40.7067 97.4688 40.3858 97.4688 39.99V22.2167C97.4688 21.8209 97.7894 21.5 98.1851 21.5H99.847C100.243 21.5 100.563 21.8209 100.563 22.2167V39.99Z" fill="white"/>
<path d="M109.023 40.9935C104.438 40.9935 101.831 39.1875 101.831 35.8909C101.831 35.8433 101.869 35.8049 101.917 35.8049H104.696C104.823 35.8049 104.925 35.9076 104.925 36.0342C104.925 37.8975 106.043 38.4995 109.023 38.4995C111.802 38.4995 112.633 37.9262 112.633 36.6648C112.633 35.4895 111.945 35.1169 109.911 34.8302L106.014 34.3142C103.321 33.9702 101.688 32.8235 101.688 30.4442C101.688 27.9502 103.951 26.1729 108.335 26.1729C112.69 26.1729 115.326 27.9215 115.326 31.3042C115.326 31.3517 115.288 31.3902 115.24 31.3902H112.432C112.337 31.3902 112.26 31.3133 112.26 31.2182C112.26 29.5269 111.401 28.6382 108.249 28.6382C105.642 28.6382 104.725 29.2115 104.725 30.5589C104.725 31.6769 105.298 32.0782 107.447 32.3649L110.742 32.8235C114.123 33.2535 115.67 34.4002 115.67 36.7508C115.67 39.4169 113.034 40.9935 109.023 40.9935Z" fill="white"/>
</mask>
<g mask="url(#mask5_607_16578)">
<path d="M54.2782 40.7067H46.2554C45.8597 40.7067 45.5391 40.3858 45.5391 39.99V22.2167C45.5391 21.8209 45.8597 21.5 46.2554 21.5H54.2782C60.2381 21.5 63.9916 25.1693 63.9916 31.1033C63.9916 37.0373 60.2381 40.7067 54.2782 40.7067ZM54.2782 24.2807H49.3213C48.9256 24.2807 48.6049 24.6015 48.6049 24.9973V37.2093C48.6049 37.6052 48.9256 37.926 49.3213 37.926H54.2782C58.7195 37.926 60.7252 36.034 60.7252 31.1033C60.7252 26.1727 58.7195 24.2807 54.2782 24.2807Z" stroke="url(#paint15_linear_607_16578)" stroke-width="0.4"/>
</g>
<mask id="mask6_607_16578" style="mask-type:luminance" maskUnits="userSpaceOnUse" x="45" y="0" width="71" height="41">
<path d="M48.4617 18.49C48.4617 18.8858 48.141 19.2067 47.7454 19.2067H46.0835C45.6879 19.2067 45.3672 18.8858 45.3672 18.49V0.716667C45.3672 0.320861 45.6879 0 46.0835 0H59.9229C60.3186 0 60.6393 0.320864 60.6393 0.716667V2.064C60.6393 2.45982 60.3186 2.78067 59.9229 2.78067H49.178C48.7824 2.78067 48.4617 3.10152 48.4617 3.49733V8.02667C48.4617 8.42248 48.7824 8.74333 49.178 8.74333H59.4931C59.8888 8.74333 60.2095 9.06419 60.2095 9.46V10.7787C60.2095 11.1745 59.8888 11.4953 59.4931 11.4953H49.178C48.7824 11.4953 48.4617 11.8162 48.4617 12.212V18.49Z" fill="white"/>
<path d="M65.1727 18.49C65.1727 18.8858 64.852 19.2067 64.4563 19.2067H62.7945C62.3988 19.2067 62.0781 18.8858 62.0781 18.49V0.716667C62.0781 0.320861 62.3988 0 62.7945 0H64.4563C64.852 0 65.1727 0.320864 65.1727 0.716667V18.49Z" fill="white"/>
<path d="M71.3606 19.4935C68.4093 19.4935 66.5469 18.1175 66.5469 15.7669C66.5469 13.5595 68.3234 12.4129 71.1314 12.0975L76.9661 11.4776C77.3305 11.4389 77.607 11.1314 77.607 10.7649V10.5782C77.607 8.22752 76.5754 7.39619 73.8534 7.39619C71.2173 7.39619 69.9279 8.25619 69.9279 10.3489C69.9279 10.4122 69.8766 10.4635 69.8133 10.4635H66.9767C66.9134 10.4635 66.8621 10.4122 66.8621 10.3489C66.8621 7.10952 69.5554 4.67285 74.0826 4.67285C78.6098 4.67285 80.6442 7.13819 80.6442 10.5495V18.4902C80.6442 18.886 80.3235 19.2069 79.9279 19.2069H78.5239C78.1282 19.2069 77.8075 18.886 77.8075 18.4902V15.7677C77.8075 15.7039 77.7557 15.6522 77.692 15.6522C77.6413 15.6522 77.5967 15.6855 77.5809 15.7336C76.8104 18.0925 74.5616 19.4935 71.3606 19.4935ZM69.6414 15.5662C69.6414 16.7129 70.415 17.2575 72.1915 17.2575C75.1036 17.2575 77.1583 16.2835 77.542 14.0433C77.6141 13.6218 77.2349 13.2862 76.8102 13.3341L72.0196 13.8749C70.415 14.0755 69.6414 14.4482 69.6414 15.5662Z" fill="white"/>
<path d="M89.2805 19.4935C84.696 19.4935 82.0886 17.6875 82.0886 14.3909C82.0886 14.3434 82.1273 14.3049 82.1745 14.3049H84.9539C85.0807 14.3049 85.1831 14.4075 85.1831 14.5342C85.1831 16.3975 86.3006 16.9995 89.2805 16.9995C92.0598 16.9995 92.8908 16.4262 92.8908 15.1649C92.8908 13.9895 92.2031 13.6169 90.1687 13.3302L86.2719 12.8142C83.5785 12.4702 81.9453 11.3235 81.9453 8.94419C81.9453 6.45018 84.2089 4.67285 88.5928 4.67285C92.9481 4.67285 95.5842 6.42152 95.5842 9.80419C95.5842 9.85168 95.5457 9.89019 95.4982 9.89019H92.6902C92.5954 9.89019 92.5183 9.81317 92.5183 9.71819C92.5183 8.02685 91.6587 7.13819 88.5069 7.13819C85.8994 7.13819 84.9825 7.71152 84.9825 9.05885C84.9825 10.1769 85.5556 10.5782 87.7046 10.8649L90.9997 11.3235C94.3807 11.7535 95.928 12.9002 95.928 15.2509C95.928 17.9169 93.2919 19.4935 89.2805 19.4935Z" fill="white"/>
<path d="M100.399 18.49C100.399 18.8858 100.079 19.2067 99.6829 19.2067H98.021C97.6254 19.2067 97.3047 18.8858 97.3047 18.49V0.716667C97.3047 0.320861 97.6254 0 98.021 0H99.6829C100.079 0 100.399 0.320864 100.399 0.716667V9.22204C100.399 9.27431 100.441 9.31667 100.494 9.31667C100.539 9.31667 100.578 9.28497 100.587 9.24094C101.095 6.86201 102.844 4.67267 106.445 4.67267C110.37 4.67267 112.29 7.25267 112.29 10.7213V18.49C112.29 18.8858 111.97 19.2067 111.574 19.2067H109.941C109.545 19.2067 109.224 18.8858 109.224 18.49V11.4667C109.224 8.6 107.935 7.45333 104.984 7.45333C101.603 7.45333 100.399 9.288 100.399 12.298V18.49Z" fill="white"/>
<path d="M54.2782 40.7067H46.2554C45.8597 40.7067 45.5391 40.3858 45.5391 39.99V22.2167C45.5391 21.8209 45.8597 21.5 46.2554 21.5H54.2782C60.2381 21.5 63.9916 25.1693 63.9916 31.1033C63.9916 37.0373 60.2381 40.7067 54.2782 40.7067ZM54.2782 24.2807H49.3213C48.9256 24.2807 48.6049 24.6015 48.6049 24.9973V37.2093C48.6049 37.6052 48.9256 37.926 49.3213 37.926H54.2782C58.7195 37.926 60.7252 36.034 60.7252 31.1033C60.7252 26.1727 58.7195 24.2807 54.2782 24.2807Z" fill="white"/>
<path d="M71.0848 40.993C67.0734 40.993 65.125 38.327 65.125 35.0303V27.1757C65.125 26.7798 65.4457 26.459 65.8413 26.459H67.4746C67.8702 26.459 68.1909 26.7798 68.1909 27.1757V34.199C68.1909 36.865 69.423 38.2123 72.4315 38.2123C75.5834 38.2123 77.0447 36.607 77.0447 33.511V27.1757C77.0447 26.7798 77.3654 26.459 77.761 26.459H79.3942C79.7899 26.459 80.1105 26.7798 80.1105 27.1757V39.9896C80.1105 40.3855 79.7899 40.7063 79.3942 40.7063H77.9902C77.5946 40.7063 77.2739 40.3855 77.2739 39.9896V36.3858C77.2739 36.3337 77.2319 36.2917 77.1798 36.2917C77.1347 36.2917 77.096 36.3237 77.0869 36.3679C76.6034 38.7479 74.7137 40.993 71.0848 40.993Z" fill="white"/>
<path d="M88.9395 40.9935C84.269 40.9935 81.2031 38.3562 81.2031 33.5975C81.2031 29.1542 84.2403 26.1729 88.8821 26.1729C93.2947 26.1729 96.3033 28.6095 96.3033 32.9382C96.3033 33.2201 96.2949 33.4676 96.273 33.7043C96.2417 34.0445 95.943 34.2855 95.6015 34.2855H84.844C84.4366 34.2855 84.1062 34.6259 84.163 35.0297C84.4832 37.3003 85.8693 38.4995 88.8535 38.4995C91.8334 38.4995 93.0655 37.5249 93.0655 35.8335C93.0655 35.7069 93.1682 35.6042 93.2947 35.6042H95.9021C96.0447 35.6042 96.16 35.7198 96.16 35.8622C96.16 38.9009 93.1801 40.9935 88.9395 40.9935ZM88.8248 28.6095C86.002 28.6095 84.6042 29.7364 84.2196 31.8044C84.1439 32.2122 84.4775 32.5655 84.892 32.5655H93.3234C93.3551 32.5655 93.3807 32.54 93.3807 32.5082C93.3807 29.8709 91.8621 28.6095 88.8248 28.6095Z" fill="white"/>
<path d="M100.563 39.99C100.563 40.3858 100.243 40.7067 99.847 40.7067H98.1851C97.7894 40.7067 97.4688 40.3858 97.4688 39.99V22.2167C97.4688 21.8209 97.7894 21.5 98.1851 21.5H99.847C100.243 21.5 100.563 21.8209 100.563 22.2167V39.99Z" fill="white"/>
<path d="M109.023 40.9935C104.438 40.9935 101.831 39.1875 101.831 35.8909C101.831 35.8433 101.869 35.8049 101.917 35.8049H104.696C104.823 35.8049 104.925 35.9076 104.925 36.0342C104.925 37.8975 106.043 38.4995 109.023 38.4995C111.802 38.4995 112.633 37.9262 112.633 36.6648C112.633 35.4895 111.945 35.1169 109.911 34.8302L106.014 34.3142C103.321 33.9702 101.688 32.8235 101.688 30.4442C101.688 27.9502 103.951 26.1729 108.335 26.1729C112.69 26.1729 115.326 27.9215 115.326 31.3042C115.326 31.3517 115.288 31.3902 115.24 31.3902H112.432C112.337 31.3902 112.26 31.3133 112.26 31.2182C112.26 29.5269 111.401 28.6382 108.249 28.6382C105.642 28.6382 104.725 29.2115 104.725 30.5589C104.725 31.6769 105.298 32.0782 107.447 32.3649L110.742 32.8235C114.123 33.2535 115.67 34.4002 115.67 36.7508C115.67 39.4169 113.034 40.9935 109.023 40.9935Z" fill="white"/>
</mask>
<g mask="url(#mask6_607_16578)">
<path d="M71.0848 40.993C67.0734 40.993 65.125 38.327 65.125 35.0303V27.1757C65.125 26.7798 65.4457 26.459 65.8413 26.459H67.4746C67.8702 26.459 68.1909 26.7798 68.1909 27.1757V34.199C68.1909 36.865 69.423 38.2123 72.4315 38.2123C75.5834 38.2123 77.0447 36.607 77.0447 33.511V27.1757C77.0447 26.7798 77.3654 26.459 77.761 26.459H79.3942C79.7899 26.459 80.1105 26.7798 80.1105 27.1757V39.9896C80.1105 40.3855 79.7899 40.7063 79.3942 40.7063H77.9902C77.5946 40.7063 77.2739 40.3855 77.2739 39.9896V36.3858C77.2739 36.3337 77.2319 36.2917 77.1798 36.2917C77.1347 36.2917 77.096 36.3237 77.0869 36.3679C76.6034 38.7479 74.7137 40.993 71.0848 40.993Z" stroke="url(#paint16_linear_607_16578)" stroke-width="0.4"/>
</g>
<mask id="mask7_607_16578" style="mask-type:luminance" maskUnits="userSpaceOnUse" x="45" y="0" width="71" height="41">
<path d="M48.4617 18.49C48.4617 18.8858 48.141 19.2067 47.7454 19.2067H46.0835C45.6879 19.2067 45.3672 18.8858 45.3672 18.49V0.716667C45.3672 0.320861 45.6879 0 46.0835 0H59.9229C60.3186 0 60.6393 0.320864 60.6393 0.716667V2.064C60.6393 2.45982 60.3186 2.78067 59.9229 2.78067H49.178C48.7824 2.78067 48.4617 3.10152 48.4617 3.49733V8.02667C48.4617 8.42248 48.7824 8.74333 49.178 8.74333H59.4931C59.8888 8.74333 60.2095 9.06419 60.2095 9.46V10.7787C60.2095 11.1745 59.8888 11.4953 59.4931 11.4953H49.178C48.7824 11.4953 48.4617 11.8162 48.4617 12.212V18.49Z" fill="white"/>
<path d="M65.1727 18.49C65.1727 18.8858 64.852 19.2067 64.4563 19.2067H62.7945C62.3988 19.2067 62.0781 18.8858 62.0781 18.49V0.716667C62.0781 0.320861 62.3988 0 62.7945 0H64.4563C64.852 0 65.1727 0.320864 65.1727 0.716667V18.49Z" fill="white"/>
<path d="M71.3606 19.4935C68.4093 19.4935 66.5469 18.1175 66.5469 15.7669C66.5469 13.5595 68.3234 12.4129 71.1314 12.0975L76.9661 11.4776C77.3305 11.4389 77.607 11.1314 77.607 10.7649V10.5782C77.607 8.22752 76.5754 7.39619 73.8534 7.39619C71.2173 7.39619 69.9279 8.25619 69.9279 10.3489C69.9279 10.4122 69.8766 10.4635 69.8133 10.4635H66.9767C66.9134 10.4635 66.8621 10.4122 66.8621 10.3489C66.8621 7.10952 69.5554 4.67285 74.0826 4.67285C78.6098 4.67285 80.6442 7.13819 80.6442 10.5495V18.4902C80.6442 18.886 80.3235 19.2069 79.9279 19.2069H78.5239C78.1282 19.2069 77.8075 18.886 77.8075 18.4902V15.7677C77.8075 15.7039 77.7557 15.6522 77.692 15.6522C77.6413 15.6522 77.5967 15.6855 77.5809 15.7336C76.8104 18.0925 74.5616 19.4935 71.3606 19.4935ZM69.6414 15.5662C69.6414 16.7129 70.415 17.2575 72.1915 17.2575C75.1036 17.2575 77.1583 16.2835 77.542 14.0433C77.6141 13.6218 77.2349 13.2862 76.8102 13.3341L72.0196 13.8749C70.415 14.0755 69.6414 14.4482 69.6414 15.5662Z" fill="white"/>
<path d="M89.2805 19.4935C84.696 19.4935 82.0886 17.6875 82.0886 14.3909C82.0886 14.3434 82.1273 14.3049 82.1745 14.3049H84.9539C85.0807 14.3049 85.1831 14.4075 85.1831 14.5342C85.1831 16.3975 86.3006 16.9995 89.2805 16.9995C92.0598 16.9995 92.8908 16.4262 92.8908 15.1649C92.8908 13.9895 92.2031 13.6169 90.1687 13.3302L86.2719 12.8142C83.5785 12.4702 81.9453 11.3235 81.9453 8.94419C81.9453 6.45018 84.2089 4.67285 88.5928 4.67285C92.9481 4.67285 95.5842 6.42152 95.5842 9.80419C95.5842 9.85168 95.5457 9.89019 95.4982 9.89019H92.6902C92.5954 9.89019 92.5183 9.81317 92.5183 9.71819C92.5183 8.02685 91.6587 7.13819 88.5069 7.13819C85.8994 7.13819 84.9825 7.71152 84.9825 9.05885C84.9825 10.1769 85.5556 10.5782 87.7046 10.8649L90.9997 11.3235C94.3807 11.7535 95.928 12.9002 95.928 15.2509C95.928 17.9169 93.2919 19.4935 89.2805 19.4935Z" fill="white"/>
<path d="M100.399 18.49C100.399 18.8858 100.079 19.2067 99.6829 19.2067H98.021C97.6254 19.2067 97.3047 18.8858 97.3047 18.49V0.716667C97.3047 0.320861 97.6254 0 98.021 0H99.6829C100.079 0 100.399 0.320864 100.399 0.716667V9.22204C100.399 9.27431 100.441 9.31667 100.494 9.31667C100.539 9.31667 100.578 9.28497 100.587 9.24094C101.095 6.86201 102.844 4.67267 106.445 4.67267C110.37 4.67267 112.29 7.25267 112.29 10.7213V18.49C112.29 18.8858 111.97 19.2067 111.574 19.2067H109.941C109.545 19.2067 109.224 18.8858 109.224 18.49V11.4667C109.224 8.6 107.935 7.45333 104.984 7.45333C101.603 7.45333 100.399 9.288 100.399 12.298V18.49Z" fill="white"/>
<path d="M54.2782 40.7067H46.2554C45.8597 40.7067 45.5391 40.3858 45.5391 39.99V22.2167C45.5391 21.8209 45.8597 21.5 46.2554 21.5H54.2782C60.2381 21.5 63.9916 25.1693 63.9916 31.1033C63.9916 37.0373 60.2381 40.7067 54.2782 40.7067ZM54.2782 24.2807H49.3213C48.9256 24.2807 48.6049 24.6015 48.6049 24.9973V37.2093C48.6049 37.6052 48.9256 37.926 49.3213 37.926H54.2782C58.7195 37.926 60.7252 36.034 60.7252 31.1033C60.7252 26.1727 58.7195 24.2807 54.2782 24.2807Z" fill="white"/>
<path d="M71.0848 40.993C67.0734 40.993 65.125 38.327 65.125 35.0303V27.1757C65.125 26.7798 65.4457 26.459 65.8413 26.459H67.4746C67.8702 26.459 68.1909 26.7798 68.1909 27.1757V34.199C68.1909 36.865 69.423 38.2123 72.4315 38.2123C75.5834 38.2123 77.0447 36.607 77.0447 33.511V27.1757C77.0447 26.7798 77.3654 26.459 77.761 26.459H79.3942C79.7899 26.459 80.1105 26.7798 80.1105 27.1757V39.9896C80.1105 40.3855 79.7899 40.7063 79.3942 40.7063H77.9902C77.5946 40.7063 77.2739 40.3855 77.2739 39.9896V36.3858C77.2739 36.3337 77.2319 36.2917 77.1798 36.2917C77.1347 36.2917 77.096 36.3237 77.0869 36.3679C76.6034 38.7479 74.7137 40.993 71.0848 40.993Z" fill="white"/>
<path d="M88.9395 40.9935C84.269 40.9935 81.2031 38.3562 81.2031 33.5975C81.2031 29.1542 84.2403 26.1729 88.8821 26.1729C93.2947 26.1729 96.3033 28.6095 96.3033 32.9382C96.3033 33.2201 96.2949 33.4676 96.273 33.7043C96.2417 34.0445 95.943 34.2855 95.6015 34.2855H84.844C84.4366 34.2855 84.1062 34.6259 84.163 35.0297C84.4832 37.3003 85.8693 38.4995 88.8535 38.4995C91.8334 38.4995 93.0655 37.5249 93.0655 35.8335C93.0655 35.7069 93.1682 35.6042 93.2947 35.6042H95.9021C96.0447 35.6042 96.16 35.7198 96.16 35.8622C96.16 38.9009 93.1801 40.9935 88.9395 40.9935ZM88.8248 28.6095C86.002 28.6095 84.6042 29.7364 84.2196 31.8044C84.1439 32.2122 84.4775 32.5655 84.892 32.5655H93.3234C93.3551 32.5655 93.3807 32.54 93.3807 32.5082C93.3807 29.8709 91.8621 28.6095 88.8248 28.6095Z" fill="white"/>
<path d="M100.563 39.99C100.563 40.3858 100.243 40.7067 99.847 40.7067H98.1851C97.7894 40.7067 97.4688 40.3858 97.4688 39.99V22.2167C97.4688 21.8209 97.7894 21.5 98.1851 21.5H99.847C100.243 21.5 100.563 21.8209 100.563 22.2167V39.99Z" fill="white"/>
<path d="M109.023 40.9935C104.438 40.9935 101.831 39.1875 101.831 35.8909C101.831 35.8433 101.869 35.8049 101.917 35.8049H104.696C104.823 35.8049 104.925 35.9076 104.925 36.0342C104.925 37.8975 106.043 38.4995 109.023 38.4995C111.802 38.4995 112.633 37.9262 112.633 36.6648C112.633 35.4895 111.945 35.1169 109.911 34.8302L106.014 34.3142C103.321 33.9702 101.688 32.8235 101.688 30.4442C101.688 27.9502 103.951 26.1729 108.335 26.1729C112.69 26.1729 115.326 27.9215 115.326 31.3042C115.326 31.3517 115.288 31.3902 115.24 31.3902H112.432C112.337 31.3902 112.26 31.3133 112.26 31.2182C112.26 29.5269 111.401 28.6382 108.249 28.6382C105.642 28.6382 104.725 29.2115 104.725 30.5589C104.725 31.6769 105.298 32.0782 107.447 32.3649L110.742 32.8235C114.123 33.2535 115.67 34.4002 115.67 36.7508C115.67 39.4169 113.034 40.9935 109.023 40.9935Z" fill="white"/>
</mask>
<g mask="url(#mask7_607_16578)">
<path d="M88.9395 40.9935C84.269 40.9935 81.2031 38.3562 81.2031 33.5975C81.2031 29.1542 84.2403 26.1729 88.8821 26.1729C93.2947 26.1729 96.3033 28.6095 96.3033 32.9382C96.3033 33.2201 96.2949 33.4676 96.273 33.7043C96.2417 34.0445 95.943 34.2855 95.6015 34.2855H84.844C84.4366 34.2855 84.1062 34.6259 84.163 35.0297C84.4832 37.3003 85.8693 38.4995 88.8535 38.4995C91.8334 38.4995 93.0655 37.5249 93.0655 35.8335C93.0655 35.7069 93.1682 35.6042 93.2947 35.6042H95.9021C96.0447 35.6042 96.16 35.7198 96.16 35.8622C96.16 38.9009 93.1801 40.9935 88.9395 40.9935ZM88.8248 28.6095C86.002 28.6095 84.6042 29.7364 84.2196 31.8044C84.1439 32.2122 84.4775 32.5655 84.892 32.5655H93.3234C93.3551 32.5655 93.3807 32.54 93.3807 32.5082C93.3807 29.8709 91.8621 28.6095 88.8248 28.6095Z" stroke="url(#paint17_linear_607_16578)" stroke-width="0.4"/>
</g>
<mask id="mask8_607_16578" style="mask-type:luminance" maskUnits="userSpaceOnUse" x="45" y="0" width="71" height="41">
<path d="M48.4617 18.49C48.4617 18.8858 48.141 19.2067 47.7454 19.2067H46.0835C45.6879 19.2067 45.3672 18.8858 45.3672 18.49V0.716667C45.3672 0.320861 45.6879 0 46.0835 0H59.9229C60.3186 0 60.6393 0.320864 60.6393 0.716667V2.064C60.6393 2.45982 60.3186 2.78067 59.9229 2.78067H49.178C48.7824 2.78067 48.4617 3.10152 48.4617 3.49733V8.02667C48.4617 8.42248 48.7824 8.74333 49.178 8.74333H59.4931C59.8888 8.74333 60.2095 9.06419 60.2095 9.46V10.7787C60.2095 11.1745 59.8888 11.4953 59.4931 11.4953H49.178C48.7824 11.4953 48.4617 11.8162 48.4617 12.212V18.49Z" fill="white"/>
<path d="M65.1727 18.49C65.1727 18.8858 64.852 19.2067 64.4563 19.2067H62.7945C62.3988 19.2067 62.0781 18.8858 62.0781 18.49V0.716667C62.0781 0.320861 62.3988 0 62.7945 0H64.4563C64.852 0 65.1727 0.320864 65.1727 0.716667V18.49Z" fill="white"/>
<path d="M71.3606 19.4935C68.4093 19.4935 66.5469 18.1175 66.5469 15.7669C66.5469 13.5595 68.3234 12.4129 71.1314 12.0975L76.9661 11.4776C77.3305 11.4389 77.607 11.1314 77.607 10.7649V10.5782C77.607 8.22752 76.5754 7.39619 73.8534 7.39619C71.2173 7.39619 69.9279 8.25619 69.9279 10.3489C69.9279 10.4122 69.8766 10.4635 69.8133 10.4635H66.9767C66.9134 10.4635 66.8621 10.4122 66.8621 10.3489C66.8621 7.10952 69.5554 4.67285 74.0826 4.67285C78.6098 4.67285 80.6442 7.13819 80.6442 10.5495V18.4902C80.6442 18.886 80.3235 19.2069 79.9279 19.2069H78.5239C78.1282 19.2069 77.8075 18.886 77.8075 18.4902V15.7677C77.8075 15.7039 77.7557 15.6522 77.692 15.6522C77.6413 15.6522 77.5967 15.6855 77.5809 15.7336C76.8104 18.0925 74.5616 19.4935 71.3606 19.4935ZM69.6414 15.5662C69.6414 16.7129 70.415 17.2575 72.1915 17.2575C75.1036 17.2575 77.1583 16.2835 77.542 14.0433C77.6141 13.6218 77.2349 13.2862 76.8102 13.3341L72.0196 13.8749C70.415 14.0755 69.6414 14.4482 69.6414 15.5662Z" fill="white"/>
<path d="M89.2805 19.4935C84.696 19.4935 82.0886 17.6875 82.0886 14.3909C82.0886 14.3434 82.1273 14.3049 82.1745 14.3049H84.9539C85.0807 14.3049 85.1831 14.4075 85.1831 14.5342C85.1831 16.3975 86.3006 16.9995 89.2805 16.9995C92.0598 16.9995 92.8908 16.4262 92.8908 15.1649C92.8908 13.9895 92.2031 13.6169 90.1687 13.3302L86.2719 12.8142C83.5785 12.4702 81.9453 11.3235 81.9453 8.94419C81.9453 6.45018 84.2089 4.67285 88.5928 4.67285C92.9481 4.67285 95.5842 6.42152 95.5842 9.80419C95.5842 9.85168 95.5457 9.89019 95.4982 9.89019H92.6902C92.5954 9.89019 92.5183 9.81317 92.5183 9.71819C92.5183 8.02685 91.6587 7.13819 88.5069 7.13819C85.8994 7.13819 84.9825 7.71152 84.9825 9.05885C84.9825 10.1769 85.5556 10.5782 87.7046 10.8649L90.9997 11.3235C94.3807 11.7535 95.928 12.9002 95.928 15.2509C95.928 17.9169 93.2919 19.4935 89.2805 19.4935Z" fill="white"/>
<path d="M100.399 18.49C100.399 18.8858 100.079 19.2067 99.6829 19.2067H98.021C97.6254 19.2067 97.3047 18.8858 97.3047 18.49V0.716667C97.3047 0.320861 97.6254 0 98.021 0H99.6829C100.079 0 100.399 0.320864 100.399 0.716667V9.22204C100.399 9.27431 100.441 9.31667 100.494 9.31667C100.539 9.31667 100.578 9.28497 100.587 9.24094C101.095 6.86201 102.844 4.67267 106.445 4.67267C110.37 4.67267 112.29 7.25267 112.29 10.7213V18.49C112.29 18.8858 111.97 19.2067 111.574 19.2067H109.941C109.545 19.2067 109.224 18.8858 109.224 18.49V11.4667C109.224 8.6 107.935 7.45333 104.984 7.45333C101.603 7.45333 100.399 9.288 100.399 12.298V18.49Z" fill="white"/>
<path d="M54.2782 40.7067H46.2554C45.8597 40.7067 45.5391 40.3858 45.5391 39.99V22.2167C45.5391 21.8209 45.8597 21.5 46.2554 21.5H54.2782C60.2381 21.5 63.9916 25.1693 63.9916 31.1033C63.9916 37.0373 60.2381 40.7067 54.2782 40.7067ZM54.2782 24.2807H49.3213C48.9256 24.2807 48.6049 24.6015 48.6049 24.9973V37.2093C48.6049 37.6052 48.9256 37.926 49.3213 37.926H54.2782C58.7195 37.926 60.7252 36.034 60.7252 31.1033C60.7252 26.1727 58.7195 24.2807 54.2782 24.2807Z" fill="white"/>
<path d="M71.0848 40.993C67.0734 40.993 65.125 38.327 65.125 35.0303V27.1757C65.125 26.7798 65.4457 26.459 65.8413 26.459H67.4746C67.8702 26.459 68.1909 26.7798 68.1909 27.1757V34.199C68.1909 36.865 69.423 38.2123 72.4315 38.2123C75.5834 38.2123 77.0447 36.607 77.0447 33.511V27.1757C77.0447 26.7798 77.3654 26.459 77.761 26.459H79.3942C79.7899 26.459 80.1105 26.7798 80.1105 27.1757V39.9896C80.1105 40.3855 79.7899 40.7063 79.3942 40.7063H77.9902C77.5946 40.7063 77.2739 40.3855 77.2739 39.9896V36.3858C77.2739 36.3337 77.2319 36.2917 77.1798 36.2917C77.1347 36.2917 77.096 36.3237 77.0869 36.3679C76.6034 38.7479 74.7137 40.993 71.0848 40.993Z" fill="white"/>
<path d="M88.9395 40.9935C84.269 40.9935 81.2031 38.3562 81.2031 33.5975C81.2031 29.1542 84.2403 26.1729 88.8821 26.1729C93.2947 26.1729 96.3033 28.6095 96.3033 32.9382C96.3033 33.2201 96.2949 33.4676 96.273 33.7043C96.2417 34.0445 95.943 34.2855 95.6015 34.2855H84.844C84.4366 34.2855 84.1062 34.6259 84.163 35.0297C84.4832 37.3003 85.8693 38.4995 88.8535 38.4995C91.8334 38.4995 93.0655 37.5249 93.0655 35.8335C93.0655 35.7069 93.1682 35.6042 93.2947 35.6042H95.9021C96.0447 35.6042 96.16 35.7198 96.16 35.8622C96.16 38.9009 93.1801 40.9935 88.9395 40.9935ZM88.8248 28.6095C86.002 28.6095 84.6042 29.7364 84.2196 31.8044C84.1439 32.2122 84.4775 32.5655 84.892 32.5655H93.3234C93.3551 32.5655 93.3807 32.54 93.3807 32.5082C93.3807 29.8709 91.8621 28.6095 88.8248 28.6095Z" fill="white"/>
<path d="M100.563 39.99C100.563 40.3858 100.243 40.7067 99.847 40.7067H98.1851C97.7894 40.7067 97.4688 40.3858 97.4688 39.99V22.2167C97.4688 21.8209 97.7894 21.5 98.1851 21.5H99.847C100.243 21.5 100.563 21.8209 100.563 22.2167V39.99Z" fill="white"/>
<path d="M109.023 40.9935C104.438 40.9935 101.831 39.1875 101.831 35.8909C101.831 35.8433 101.869 35.8049 101.917 35.8049H104.696C104.823 35.8049 104.925 35.9076 104.925 36.0342C104.925 37.8975 106.043 38.4995 109.023 38.4995C111.802 38.4995 112.633 37.9262 112.633 36.6648C112.633 35.4895 111.945 35.1169 109.911 34.8302L106.014 34.3142C103.321 33.9702 101.688 32.8235 101.688 30.4442C101.688 27.9502 103.951 26.1729 108.335 26.1729C112.69 26.1729 115.326 27.9215 115.326 31.3042C115.326 31.3517 115.288 31.3902 115.24 31.3902H112.432C112.337 31.3902 112.26 31.3133 112.26 31.2182C112.26 29.5269 111.401 28.6382 108.249 28.6382C105.642 28.6382 104.725 29.2115 104.725 30.5589C104.725 31.6769 105.298 32.0782 107.447 32.3649L110.742 32.8235C114.123 33.2535 115.67 34.4002 115.67 36.7508C115.67 39.4169 113.034 40.9935 109.023 40.9935Z" fill="white"/>
</mask>
<g mask="url(#mask8_607_16578)">
<path d="M100.563 39.99C100.563 40.3858 100.243 40.7067 99.847 40.7067H98.1851C97.7894 40.7067 97.4688 40.3858 97.4688 39.99V22.2167C97.4688 21.8209 97.7894 21.5 98.1851 21.5H99.847C100.243 21.5 100.563 21.8209 100.563 22.2167V39.99Z" stroke="url(#paint18_linear_607_16578)" stroke-width="0.4"/>
</g>
<mask id="mask9_607_16578" style="mask-type:luminance" maskUnits="userSpaceOnUse" x="45" y="0" width="71" height="41">
<path d="M48.4617 18.49C48.4617 18.8858 48.141 19.2067 47.7454 19.2067H46.0835C45.6879 19.2067 45.3672 18.8858 45.3672 18.49V0.716667C45.3672 0.320861 45.6879 0 46.0835 0H59.9229C60.3186 0 60.6393 0.320864 60.6393 0.716667V2.064C60.6393 2.45982 60.3186 2.78067 59.9229 2.78067H49.178C48.7824 2.78067 48.4617 3.10152 48.4617 3.49733V8.02667C48.4617 8.42248 48.7824 8.74333 49.178 8.74333H59.4931C59.8888 8.74333 60.2095 9.06419 60.2095 9.46V10.7787C60.2095 11.1745 59.8888 11.4953 59.4931 11.4953H49.178C48.7824 11.4953 48.4617 11.8162 48.4617 12.212V18.49Z" fill="white"/>
<path d="M65.1727 18.49C65.1727 18.8858 64.852 19.2067 64.4563 19.2067H62.7945C62.3988 19.2067 62.0781 18.8858 62.0781 18.49V0.716667C62.0781 0.320861 62.3988 0 62.7945 0H64.4563C64.852 0 65.1727 0.320864 65.1727 0.716667V18.49Z" fill="white"/>
<path d="M71.3606 19.4935C68.4093 19.4935 66.5469 18.1175 66.5469 15.7669C66.5469 13.5595 68.3234 12.4129 71.1314 12.0975L76.9661 11.4776C77.3305 11.4389 77.607 11.1314 77.607 10.7649V10.5782C77.607 8.22752 76.5754 7.39619 73.8534 7.39619C71.2173 7.39619 69.9279 8.25619 69.9279 10.3489C69.9279 10.4122 69.8766 10.4635 69.8133 10.4635H66.9767C66.9134 10.4635 66.8621 10.4122 66.8621 10.3489C66.8621 7.10952 69.5554 4.67285 74.0826 4.67285C78.6098 4.67285 80.6442 7.13819 80.6442 10.5495V18.4902C80.6442 18.886 80.3235 19.2069 79.9279 19.2069H78.5239C78.1282 19.2069 77.8075 18.886 77.8075 18.4902V15.7677C77.8075 15.7039 77.7557 15.6522 77.692 15.6522C77.6413 15.6522 77.5967 15.6855 77.5809 15.7336C76.8104 18.0925 74.5616 19.4935 71.3606 19.4935ZM69.6414 15.5662C69.6414 16.7129 70.415 17.2575 72.1915 17.2575C75.1036 17.2575 77.1583 16.2835 77.542 14.0433C77.6141 13.6218 77.2349 13.2862 76.8102 13.3341L72.0196 13.8749C70.415 14.0755 69.6414 14.4482 69.6414 15.5662Z" fill="white"/>
<path d="M89.2805 19.4935C84.696 19.4935 82.0886 17.6875 82.0886 14.3909C82.0886 14.3434 82.1273 14.3049 82.1745 14.3049H84.9539C85.0807 14.3049 85.1831 14.4075 85.1831 14.5342C85.1831 16.3975 86.3006 16.9995 89.2805 16.9995C92.0598 16.9995 92.8908 16.4262 92.8908 15.1649C92.8908 13.9895 92.2031 13.6169 90.1687 13.3302L86.2719 12.8142C83.5785 12.4702 81.9453 11.3235 81.9453 8.94419C81.9453 6.45018 84.2089 4.67285 88.5928 4.67285C92.9481 4.67285 95.5842 6.42152 95.5842 9.80419C95.5842 9.85168 95.5457 9.89019 95.4982 9.89019H92.6902C92.5954 9.89019 92.5183 9.81317 92.5183 9.71819C92.5183 8.02685 91.6587 7.13819 88.5069 7.13819C85.8994 7.13819 84.9825 7.71152 84.9825 9.05885C84.9825 10.1769 85.5556 10.5782 87.7046 10.8649L90.9997 11.3235C94.3807 11.7535 95.928 12.9002 95.928 15.2509C95.928 17.9169 93.2919 19.4935 89.2805 19.4935Z" fill="white"/>
<path d="M100.399 18.49C100.399 18.8858 100.079 19.2067 99.6829 19.2067H98.021C97.6254 19.2067 97.3047 18.8858 97.3047 18.49V0.716667C97.3047 0.320861 97.6254 0 98.021 0H99.6829C100.079 0 100.399 0.320864 100.399 0.716667V9.22204C100.399 9.27431 100.441 9.31667 100.494 9.31667C100.539 9.31667 100.578 9.28497 100.587 9.24094C101.095 6.86201 102.844 4.67267 106.445 4.67267C110.37 4.67267 112.29 7.25267 112.29 10.7213V18.49C112.29 18.8858 111.97 19.2067 111.574 19.2067H109.941C109.545 19.2067 109.224 18.8858 109.224 18.49V11.4667C109.224 8.6 107.935 7.45333 104.984 7.45333C101.603 7.45333 100.399 9.288 100.399 12.298V18.49Z" fill="white"/>
<path d="M54.2782 40.7067H46.2554C45.8597 40.7067 45.5391 40.3858 45.5391 39.99V22.2167C45.5391 21.8209 45.8597 21.5 46.2554 21.5H54.2782C60.2381 21.5 63.9916 25.1693 63.9916 31.1033C63.9916 37.0373 60.2381 40.7067 54.2782 40.7067ZM54.2782 24.2807H49.3213C48.9256 24.2807 48.6049 24.6015 48.6049 24.9973V37.2093C48.6049 37.6052 48.9256 37.926 49.3213 37.926H54.2782C58.7195 37.926 60.7252 36.034 60.7252 31.1033C60.7252 26.1727 58.7195 24.2807 54.2782 24.2807Z" fill="white"/>
<path d="M71.0848 40.993C67.0734 40.993 65.125 38.327 65.125 35.0303V27.1757C65.125 26.7798 65.4457 26.459 65.8413 26.459H67.4746C67.8702 26.459 68.1909 26.7798 68.1909 27.1757V34.199C68.1909 36.865 69.423 38.2123 72.4315 38.2123C75.5834 38.2123 77.0447 36.607 77.0447 33.511V27.1757C77.0447 26.7798 77.3654 26.459 77.761 26.459H79.3942C79.7899 26.459 80.1105 26.7798 80.1105 27.1757V39.9897C80.1105 40.3855 79.7899 40.7063 79.3942 40.7063H77.9902C77.5946 40.7063 77.2739 40.3855 77.2739 39.9897V36.3858C77.2739 36.3337 77.2319 36.2917 77.1798 36.2917C77.1347 36.2917 77.096 36.3237 77.0869 36.3679C76.6034 38.7479 74.7137 40.993 71.0848 40.993Z" fill="white"/>
<path d="M88.9395 40.9935C84.269 40.9935 81.2031 38.3562 81.2031 33.5975C81.2031 29.1542 84.2403 26.1729 88.8821 26.1729C93.2947 26.1729 96.3033 28.6095 96.3033 32.9382C96.3033 33.2201 96.2949 33.4676 96.273 33.7043C96.2417 34.0445 95.943 34.2855 95.6015 34.2855H84.844C84.4366 34.2855 84.1062 34.6259 84.163 35.0297C84.4832 37.3003 85.8693 38.4995 88.8535 38.4995C91.8334 38.4995 93.0655 37.5249 93.0655 35.8335C93.0655 35.7069 93.1682 35.6042 93.2947 35.6042H95.9021C96.0447 35.6042 96.16 35.7198 96.16 35.8622C96.16 38.9009 93.1801 40.9935 88.9395 40.9935ZM88.8248 28.6095C86.002 28.6095 84.6042 29.7364 84.2196 31.8044C84.1439 32.2122 84.4775 32.5655 84.892 32.5655H93.3234C93.3551 32.5655 93.3807 32.54 93.3807 32.5082C93.3807 29.8709 91.8621 28.6095 88.8248 28.6095Z" fill="white"/>
<path d="M100.563 39.99C100.563 40.3858 100.243 40.7067 99.847 40.7067H98.1851C97.7894 40.7067 97.4688 40.3858 97.4688 39.99V22.2167C97.4688 21.8209 97.7894 21.5 98.1851 21.5H99.847C100.243 21.5 100.563 21.8209 100.563 22.2167V39.99Z" fill="white"/>
<path d="M109.023 40.9935C104.438 40.9935 101.831 39.1875 101.831 35.8909C101.831 35.8433 101.869 35.8049 101.917 35.8049H104.696C104.823 35.8049 104.925 35.9076 104.925 36.0342C104.925 37.8975 106.043 38.4995 109.023 38.4995C111.802 38.4995 112.633 37.9262 112.633 36.6648C112.633 35.4895 111.945 35.1169 109.911 34.8302L106.014 34.3142C103.321 33.9702 101.688 32.8235 101.688 30.4442C101.688 27.9502 103.951 26.1729 108.335 26.1729C112.69 26.1729 115.326 27.9215 115.326 31.3042C115.326 31.3517 115.288 31.3902 115.24 31.3902H112.432C112.337 31.3902 112.26 31.3133 112.26 31.2182C112.26 29.5269 111.401 28.6382 108.249 28.6382C105.642 28.6382 104.725 29.2115 104.725 30.5589C104.725 31.6769 105.298 32.0782 107.447 32.3649L110.742 32.8235C114.123 33.2535 115.67 34.4002 115.67 36.7508C115.67 39.4169 113.034 40.9935 109.023 40.9935Z" fill="white"/>
</mask>
<g mask="url(#mask9_607_16578)">
<path d="M109.023 40.9935C104.438 40.9935 101.831 39.1875 101.831 35.8909C101.831 35.8433 101.869 35.8049 101.917 35.8049H104.696C104.823 35.8049 104.925 35.9076 104.925 36.0342C104.925 37.8975 106.043 38.4995 109.023 38.4995C111.802 38.4995 112.633 37.9262 112.633 36.6648C112.633 35.4895 111.945 35.1169 109.911 34.8302L106.014 34.3142C103.321 33.9702 101.688 32.8235 101.688 30.4442C101.688 27.9502 103.951 26.1729 108.335 26.1729C112.69 26.1729 115.326 27.9215 115.326 31.3042C115.326 31.3517 115.288 31.3902 115.24 31.3902H112.432C112.337 31.3902 112.26 31.3133 112.26 31.2182C112.26 29.5269 111.401 28.6382 108.249 28.6382C105.642 28.6382 104.725 29.2115 104.725 30.5589C104.725 31.6769 105.298 32.0782 107.447 32.3649L110.742 32.8235C114.123 33.2535 115.67 34.4002 115.67 36.7509C115.67 39.4169 113.034 40.9935 109.023 40.9935Z" stroke="url(#paint19_linear_607_16578)" stroke-width="0.4"/>
</g>
<path d="M31.0423 37.8643C33.482 37.8643 35.4597 35.8856 35.4597 33.4448C35.4597 31.004 33.482 29.0254 31.0423 29.0254C28.6027 29.0254 26.625 31.004 26.625 33.4448C26.625 35.8856 28.6027 37.8643 31.0423 37.8643Z" fill="#E4572A" stroke="url(#paint20_linear_607_16578)" stroke-width="0.3" stroke-linejoin="round"/>
<path d="M19.8461 16.9723H26.3473C28.0063 16.9723 28.9645 18.8558 27.9881 20.1978L17.6069 34.4655C16.4504 36.0551 13.9364 35.2366 13.9364 33.2706V26.3868C13.9364 24.8693 12.7071 23.6394 11.1905 23.6394H4.68946C3.03031 23.6394 2.07212 21.7559 3.04857 20.4138L13.4298 6.14605C14.5863 4.55651 17.1002 5.37499 17.1002 7.34109V14.225C17.1002 15.7423 18.3296 16.9723 19.8461 16.9723Z" fill="#E4572A" stroke="url(#paint21_linear_607_16578)" stroke-width="0.3" stroke-linejoin="round"/>
<defs>
<linearGradient id="paint0_linear_607_16578" x1="80.9447" y1="20.4011" x2="80.9447" y2="50.2622" gradientUnits="userSpaceOnUse">
<stop stop-color="#FA764C"/>
<stop offset="1" stop-color="#AF3A15"/>
</linearGradient>
<linearGradient id="paint1_linear_607_16578" x1="80.9428" y1="20.4011" x2="80.9428" y2="50.2622" gradientUnits="userSpaceOnUse">
<stop stop-color="#FA764C"/>
<stop offset="1" stop-color="#AF3A15"/>
</linearGradient>
<linearGradient id="paint2_linear_607_16578" x1="80.9415" y1="20.4012" x2="80.9415" y2="50.2624" gradientUnits="userSpaceOnUse">
<stop stop-color="#FA764C"/>
<stop offset="1" stop-color="#AF3A15"/>
</linearGradient>
<linearGradient id="paint3_linear_607_16578" x1="80.9417" y1="20.4012" x2="80.9417" y2="50.2624" gradientUnits="userSpaceOnUse">
<stop stop-color="#FA764C"/>
<stop offset="1" stop-color="#AF3A15"/>
</linearGradient>
<linearGradient id="paint4_linear_607_16578" x1="80.9452" y1="20.4011" x2="80.9452" y2="50.2622" gradientUnits="userSpaceOnUse">
<stop stop-color="#FA764C"/>
<stop offset="1" stop-color="#AF3A15"/>
</linearGradient>
<linearGradient id="paint5_linear_607_16578" x1="80.9447" y1="20.4011" x2="80.9447" y2="50.2622" gradientUnits="userSpaceOnUse">
<stop stop-color="#FA764C"/>
<stop offset="1" stop-color="#AF3A15"/>
</linearGradient>
<linearGradient id="paint6_linear_607_16578" x1="80.9472" y1="20.4007" x2="80.9472" y2="50.2619" gradientUnits="userSpaceOnUse">
<stop stop-color="#FA764C"/>
<stop offset="1" stop-color="#AF3A15"/>
</linearGradient>
<linearGradient id="paint7_linear_607_16578" x1="80.9476" y1="20.4012" x2="80.9476" y2="50.2624" gradientUnits="userSpaceOnUse">
<stop stop-color="#FA764C"/>
<stop offset="1" stop-color="#AF3A15"/>
</linearGradient>
<linearGradient id="paint8_linear_607_16578" x1="80.9415" y1="20.4011" x2="80.9415" y2="50.2622" gradientUnits="userSpaceOnUse">
<stop stop-color="#FA764C"/>
<stop offset="1" stop-color="#AF3A15"/>
</linearGradient>
<linearGradient id="paint9_linear_607_16578" x1="80.9479" y1="20.4012" x2="80.9479" y2="50.2624" gradientUnits="userSpaceOnUse">
<stop stop-color="#FA764C"/>
<stop offset="1" stop-color="#AF3A15"/>
</linearGradient>
<linearGradient id="paint10_linear_607_16578" x1="80.9447" y1="50.2622" x2="80.9447" y2="14.4288" gradientUnits="userSpaceOnUse">
<stop stop-color="white" stop-opacity="0.1"/>
<stop offset="1" stop-color="white" stop-opacity="0"/>
</linearGradient>
<linearGradient id="paint11_linear_607_16578" x1="80.9428" y1="50.2622" x2="80.9428" y2="14.4288" gradientUnits="userSpaceOnUse">
<stop stop-color="white" stop-opacity="0.1"/>
<stop offset="1" stop-color="white" stop-opacity="0"/>
</linearGradient>
<linearGradient id="paint12_linear_607_16578" x1="80.9415" y1="50.2624" x2="80.9415" y2="14.429" gradientUnits="userSpaceOnUse">
<stop stop-color="white" stop-opacity="0.1"/>
<stop offset="1" stop-color="white" stop-opacity="0"/>
</linearGradient>
<linearGradient id="paint13_linear_607_16578" x1="80.9417" y1="50.2624" x2="80.9417" y2="14.429" gradientUnits="userSpaceOnUse">
<stop stop-color="white" stop-opacity="0.1"/>
<stop offset="1" stop-color="white" stop-opacity="0"/>
</linearGradient>
<linearGradient id="paint14_linear_607_16578" x1="80.9452" y1="50.2622" x2="80.9452" y2="14.4288" gradientUnits="userSpaceOnUse">
<stop stop-color="white" stop-opacity="0.1"/>
<stop offset="1" stop-color="white" stop-opacity="0"/>
</linearGradient>
<linearGradient id="paint15_linear_607_16578" x1="80.9447" y1="50.2622" x2="80.9447" y2="14.4288" gradientUnits="userSpaceOnUse">
<stop stop-color="white" stop-opacity="0.1"/>
<stop offset="1" stop-color="white" stop-opacity="0"/>
</linearGradient>
<linearGradient id="paint16_linear_607_16578" x1="80.9472" y1="50.2619" x2="80.9472" y2="14.4285" gradientUnits="userSpaceOnUse">
<stop stop-color="white" stop-opacity="0.1"/>
<stop offset="1" stop-color="white" stop-opacity="0"/>
</linearGradient>
<linearGradient id="paint17_linear_607_16578" x1="80.9476" y1="50.2624" x2="80.9476" y2="14.429" gradientUnits="userSpaceOnUse">
<stop stop-color="white" stop-opacity="0.1"/>
<stop offset="1" stop-color="white" stop-opacity="0"/>
</linearGradient>
<linearGradient id="paint18_linear_607_16578" x1="80.9415" y1="50.2622" x2="80.9415" y2="14.4288" gradientUnits="userSpaceOnUse">
<stop stop-color="white" stop-opacity="0.1"/>
<stop offset="1" stop-color="white" stop-opacity="0"/>
</linearGradient>
<linearGradient id="paint19_linear_607_16578" x1="80.9479" y1="50.2624" x2="80.9479" y2="14.429" gradientUnits="userSpaceOnUse">
<stop stop-color="white" stop-opacity="0.1"/>
<stop offset="1" stop-color="white" stop-opacity="0"/>
</linearGradient>
<linearGradient id="paint20_linear_607_16578" x1="31.0423" y1="28.6671" x2="31.0423" y2="38.2226" gradientUnits="userSpaceOnUse">
<stop stop-color="#FD8660"/>
<stop offset="1" stop-color="#E4572A"/>
</linearGradient>
<linearGradient id="paint21_linear_607_16578" x1="15.5183" y1="0.000277728" x2="15.5183" y2="40.6114" gradientUnits="userSpaceOnUse">
<stop stop-color="#FD8660"/>
<stop offset="1" stop-color="#E4572A"/>
</linearGradient>
</defs>
</svg>
