<svg width="188" height="179" viewBox="0 0 188 179" fill="none" xmlns="http://www.w3.org/2000/svg">
<g clip-path="url(#clip0_609_21984)">
<path d="M31.4375 84.2499C31.9078 74.7672 33.6612 65.7928 36.6976 57.3268C39.734 48.8608 43.9359 41.038 49.3032 33.8585C55.7565 40.4778 61.0478 48.2279 65.177 57.1089C69.3063 65.9899 71.7098 75.0369 72.3876 84.2499H31.4375ZM176.615 84.2499C177.293 75.0369 179.554 66.1317 183.4 57.5343C187.246 48.9369 192.679 41.2628 199.699 34.5122C205.073 41.6571 209.279 49.4383 212.315 57.8559C215.352 66.2735 217.098 75.0715 217.555 84.2499H176.615ZM49.3032 144.487C43.929 137.342 39.7928 129.637 36.8948 121.372C33.9898 113.106 32.1741 104.232 31.4479 94.7494H72.3876C71.7098 103.969 69.3063 112.875 65.177 121.465C61.0478 130.056 55.7565 137.73 49.3032 144.487ZM199.699 144.487C192.679 137.73 187.246 130.052 183.4 121.455C179.554 112.857 177.293 103.955 176.615 94.7494H217.555C217.091 103.928 215.345 112.726 212.315 121.143C209.286 129.561 205.08 137.342 199.699 144.487ZM83.022 84.2499C82.3027 73.1348 79.5948 62.701 74.8984 52.9485C70.2089 43.196 63.8732 34.3496 55.8914 26.4093C63.9216 17.715 73.3871 10.7257 84.2878 5.44141C95.1884 0.157081 106.843 -2.84129 119.252 -3.55371V84.2499H83.022ZM129.751 84.2499V-3.55371C142.16 -2.83438 153.814 0.163997 164.715 5.44141C175.615 10.7188 185.084 17.7081 193.122 26.4093C184.96 33.9139 178.576 42.6496 173.969 52.6165C169.363 62.5904 166.7 73.1383 165.98 84.2603L129.751 84.2499ZM119.252 182.553C106.539 181.841 94.808 178.763 84.0595 173.319C73.311 167.89 63.9182 160.828 55.881 152.134C64.0427 144.498 70.4267 135.838 75.0332 126.155C79.6397 116.471 82.3027 106.003 83.022 94.7494H119.252V182.553ZM129.751 182.553V94.7494H165.98C166.7 106.003 169.363 116.582 173.969 126.487C178.576 136.391 184.96 145.092 193.122 152.59C185.084 161.291 175.615 168.28 164.715 173.558C153.814 178.835 142.16 181.834 129.751 182.553Z" fill="#E4572A" fill-opacity="0.2"/>
</g>
<defs>
<clipPath id="clip0_609_21984">
<rect width="188" height="179" fill="white"/>
</clipPath>
</defs>
</svg>
