<svg width="17" height="16" viewBox="0 0 17 16" fill="none" xmlns="http://www.w3.org/2000/svg">
<path d="M8.1224 6H8.78906V5.33333H8.1224M6.78906 7.33333H7.45573V6.66667H8.1224V6H7.45573V5.33333H6.78906V4.66667H7.45573V5.33333H8.1224V4.66667H8.78906V5.33333H9.45573V6H10.1224V5.33333H10.7891V4H11.4557V3.33333H4.78906V4H5.45573V4.66667H6.1224V6H6.78906M7.45573 8H8.1224V7.33333H7.45573M8.1224 8.66667H8.78906V8H8.1224M13.4557 14H2.78906V12H3.45573V11.3333H4.1224V10H4.78906V8.66667H5.45573V7.33333H4.78906V6H4.1224V4.66667H3.45573V4H2.78906V2H13.4557V4H12.7891V4.66667H12.1224V6H11.4557V7.33333H10.7891V8.66667H11.4557V10H12.1224V11.3333H12.7891V12H13.4557M9.45573 7.33333V6H8.78906V6.66667H8.1224V7.33333M11.4557 12.6667V12H10.7891V10.6667H10.1224V9.33333H9.45573V8.66667H8.78906V10H9.45573V11.3333H10.1224V12H6.1224V11.3333H6.78906V10H7.45573V9.33333H8.1224V8.66667H6.78906V9.33333H6.1224V10.6667H5.45573V12H4.78906V12.6667H11.4557Z" fill="#F3EFE0"/>
</svg>
