<svg width="190" height="179" viewBox="0 0 190 179" fill="none" xmlns="http://www.w3.org/2000/svg">
<path d="M119 -27.5625C57.3877 -27.5625 7.4375 22.3877 7.4375 84C7.4375 145.612 57.3877 195.562 119 195.562C180.612 195.562 230.562 145.612 230.562 84C230.562 22.3877 180.612 -27.5625 119 -27.5625ZM71.4446 176.582C62.7613 172.108 54.7507 166.435 47.6483 159.729H190.355C183.253 166.435 175.242 172.108 166.559 176.582H71.4446ZM33.1712 142.864C29.5188 137.55 26.3679 131.908 23.7591 126.011H214.245C211.636 131.908 208.485 137.55 204.832 142.864H33.1712ZM17.9653 109.157C16.5954 103.623 15.6825 97.9845 15.2357 92.3002H222.768C222.321 97.9845 221.408 103.623 220.038 109.157H17.9653ZM31.7618 27.2556H33.1675L34.3836 23.4327C34.6166 23.098 34.8509 22.7683 35.0864 22.4435L36.6185 27.2556H42.2041L37.6858 30.833L39.415 36.374L34.8893 33.0829L30.371 36.4595L32.1003 30.8219L30.3524 29.4422C30.8098 28.7096 31.2896 27.9845 31.7618 27.2556ZM39.4188 80.2589L34.893 76.9641L30.3748 80.3408L32.104 74.7031L27.582 71.1331H33.1675L34.893 65.7112L36.6222 71.1331H42.2078L37.6895 74.7106L39.4188 80.2589ZM108.03 -0.103251L109.759 5.31497H115.344L110.822 8.89613L112.552 14.4371L108.03 11.1423L103.508 14.5189L105.237 8.88497L100.715 5.31125H106.3L108.03 -0.103251ZM106.3 49.1962L108.03 43.778L109.759 49.1962H115.344L110.822 52.7774L112.552 58.3183L108.03 55.0235L103.508 58.4038L105.237 52.7662L100.715 49.1925L106.3 49.1962ZM96.1929 30.833L97.9221 36.374L93.4038 33.0829L88.8781 36.4632L90.6073 30.8256L86.0891 27.2556H91.6746L93.4038 21.8337L95.1331 27.2556H100.715L96.1929 30.833ZM97.9221 80.2589L93.4038 76.9641L88.8781 80.3445L90.6073 74.7068L86.0891 71.1368H91.6746L93.4038 65.7149L95.1331 71.1368H100.715L96.1929 74.7143L97.9221 80.2589ZM81.5708 8.89613L83.3 14.4371L78.778 11.1423L74.256 14.5189L75.9852 8.88497L71.4632 5.31125H77.0488L78.778 -0.106968L80.5072 5.31125H86.0928L81.5708 8.89613ZM77.0488 49.1962L78.778 43.778L80.5072 49.1962H86.0928L81.5708 52.7774L83.3 58.3183L78.778 55.0235L74.256 58.4038L75.9852 52.7662L71.4632 49.1925L77.0488 49.1962ZM66.9412 30.833L68.6704 36.374L64.1484 33.0829L59.6264 36.4595L61.3557 30.8219L56.8337 27.2519H62.4192L64.1484 21.8299L65.8777 27.2519H71.4632L66.9412 30.833ZM62.4192 71.1368L64.1484 65.7149L65.8777 71.1368H71.4632L66.9412 74.7143L68.6704 80.2589L64.1484 76.9641L59.6264 80.3408L61.3557 74.7031L56.8337 71.1331L62.4192 71.1368ZM52.3117 52.7774L54.0409 58.3183L49.5189 55.0235L45.0006 58.4038L46.7261 52.7662L42.2041 49.1925H47.7897L49.5189 43.7743L51.2481 49.1925H56.8337L52.3117 52.7774ZM119 58.5823H219.971C221.347 64.0415 222.27 69.6754 222.742 75.4357H119V58.5823ZM119 41.7253V24.8719H204.639C208.316 30.1833 211.491 35.8255 214.122 41.7253H119ZM119 8.00734V-8.84975H166.035C174.805 -4.39454 182.899 1.28091 190.076 8.00734H119ZM94.9211 -17.2839L95.1331 -16.6219H100.715L96.1929 -13.0445L97.9221 -7.50356L93.4038 -10.7984L88.8781 -7.41803L90.6073 -13.0557L87.7402 -15.3241C90.1097 -16.0627 92.5049 -16.7164 94.9211 -17.2839ZM51.2481 5.31497H56.8337L52.3117 8.89613L54.0409 14.4371L49.5189 11.1423L45.0006 14.5189L46.6145 9.25312C48.0946 7.82016 49.6156 6.43307 51.1774 5.09184L51.2481 5.31497ZM21.9964 49.1962H27.582L23.06 52.7774L24.7892 58.3183L20.2672 55.0235L18.6681 56.2172C19.4813 53.2744 20.4172 50.3862 21.4758 47.5525L21.9964 49.1962Z" fill="#444649" fill-opacity="0.2"/>
</svg>
